<svg xmlns="http://www.w3.org/2000/svg" xmlns:xlink="http://www.w3.org/1999/xlink" width="500" zoomAndPan="magnify" viewBox="0 0 375 374.999991" height="500" preserveAspectRatio="xMidYMid meet" version="1.2"><defs><clipPath id="05c6863cc3"><path d="M 152 63.496094 L 223 63.496094 L 223 238.246094 L 152 238.246094 Z M 152 63.496094 "/></clipPath></defs><g id="eb313f9194"><path style=" stroke:none;fill-rule:nonzero;fill:#1d4355;fill-opacity:1;" d="M 158.902344 87.335938 L 158.902344 121.820312 C 158.902344 137.617188 171.707031 150.421875 187.503906 150.421875 C 203.300781 150.421875 216.105469 137.617188 216.105469 121.820312 L 216.105469 87.335938 C 209.117188 88.566406 202.664062 91.917969 197.636719 96.941406 C 191.144531 103.4375 187.503906 112.242188 187.503906 121.417969 C 187.503906 112.242188 183.863281 103.4375 177.371094 96.941406 C 172.34375 91.917969 165.894531 88.566406 158.902344 87.335938 Z M 158.902344 87.335938 "/><path style=" stroke:none;fill-rule:nonzero;fill:#0072f5;fill-opacity:1;" d="M 158.238281 87.226562 C 158.292969 87.238281 158.347656 87.238281 158.40625 87.253906 C 158.347656 87.238281 158.292969 87.238281 158.238281 87.226562 Z M 158.238281 87.226562 "/><path style=" stroke:none;fill-rule:nonzero;fill:#0072f5;fill-opacity:1;" d="M 157.949219 87.183594 C 157.988281 87.183594 158.03125 87.195312 158.074219 87.195312 C 158.015625 87.195312 157.988281 87.183594 157.949219 87.183594 Z M 157.949219 87.183594 "/><path style=" stroke:none;fill-rule:nonzero;fill:#0072f5;fill-opacity:1;" d="M 156.742188 87.03125 C 156.839844 87.042969 156.9375 87.058594 157.035156 87.058594 C 156.9375 87.042969 156.839844 87.03125 156.742188 87.03125 Z M 156.742188 87.03125 "/><path style=" stroke:none;fill-rule:nonzero;fill:#0072f5;fill-opacity:1;" d="M 155.011719 86.878906 C 155.125 86.878906 155.234375 86.890625 155.34375 86.90625 C 155.234375 86.890625 155.125 86.878906 155.011719 86.878906 Z M 155.011719 86.878906 "/><path style=" stroke:none;fill-rule:nonzero;fill:#0072f5;fill-opacity:1;" d="M 154.003906 86.824219 C 154.058594 86.824219 154.097656 86.824219 154.15625 86.824219 C 154.113281 86.835938 154.058594 86.824219 154.003906 86.824219 Z M 154.003906 86.824219 "/><path style=" stroke:none;fill-rule:nonzero;fill:#0072f5;fill-opacity:1;" d="M 221.3125 86.824219 C 221.203125 86.824219 221.089844 86.824219 220.964844 86.835938 C 221.089844 86.824219 221.203125 86.824219 221.3125 86.824219 Z M 221.3125 86.824219 "/><path style=" stroke:none;fill-rule:nonzero;fill:#0072f5;fill-opacity:1;" d="M 222.835938 86.824219 L 222.835938 121.820312 C 222.835938 140.027344 208.992188 155.253906 190.867188 156.984375 L 190.867188 201.605469 L 246.507812 145.964844 C 246.535156 145.9375 246.5625 145.910156 246.578125 145.894531 C 260.089844 132.382812 260.089844 110.46875 246.578125 96.941406 C 240.277344 90.628906 231.765625 87.003906 222.835938 86.824219 Z M 222.835938 86.824219 "/><path style=" stroke:none;fill-rule:nonzero;fill:#0072f5;fill-opacity:1;" d="M 152.175781 86.824219 C 143.246094 87.003906 134.730469 90.644531 128.417969 96.957031 C 114.90625 110.46875 114.90625 132.382812 128.417969 145.910156 C 128.445312 145.9375 128.472656 145.964844 128.488281 145.980469 L 184.125 201.617188 L 184.125 156.984375 C 166.003906 155.253906 152.160156 140.027344 152.160156 121.820312 L 152.160156 86.824219 Z M 152.175781 86.824219 "/><path style=" stroke:none;fill-rule:nonzero;fill:#0072f5;fill-opacity:1;" d="M 153.503906 86.808594 C 153.558594 86.808594 153.601562 86.808594 153.65625 86.808594 C 153.601562 86.824219 153.546875 86.808594 153.503906 86.808594 Z M 153.503906 86.808594 "/><g clip-rule="nonzero" clip-path="url(#05c6863cc3)"><path style=" stroke:none;fill-rule:nonzero;fill:#289dd2;fill-opacity:1;" d="M 152.175781 63.496094 L 152.175781 86.808594 C 152.394531 86.808594 152.617188 86.796875 152.839844 86.796875 C 154.875 86.796875 156.894531 86.960938 158.902344 87.320312 L 158.902344 70.222656 L 164.9375 70.222656 C 166.792969 70.222656 168.304688 68.714844 168.304688 66.859375 C 168.304688 65.003906 166.792969 63.496094 164.9375 63.496094 C 164.9375 63.496094 164.925781 63.496094 164.925781 63.496094 Z M 209.710938 63.496094 C 207.855469 63.496094 206.347656 65.003906 206.347656 66.859375 C 206.347656 68.714844 207.855469 70.222656 209.710938 70.222656 L 216.105469 70.222656 L 216.105469 87.335938 C 218.113281 86.988281 220.136719 86.808594 222.171875 86.808594 C 222.390625 86.808594 222.613281 86.808594 222.835938 86.824219 L 222.835938 63.496094 L 209.738281 63.496094 C 209.722656 63.496094 209.722656 63.496094 209.710938 63.496094 Z M 184.140625 201.617188 L 184.140625 216.582031 C 179.558594 218.050781 176.457031 222.300781 176.457031 227.105469 C 176.457031 233.210938 181.398438 238.152344 187.503906 238.152344 C 193.609375 238.152344 198.550781 233.210938 198.550781 227.105469 C 198.550781 222.300781 195.453125 218.050781 190.867188 216.582031 L 190.867188 201.632812 L 187.503906 204.996094 Z M 187.492188 224.378906 C 187.492188 224.378906 187.503906 224.378906 187.503906 224.378906 C 188.710938 224.378906 189.773438 225.167969 190.109375 226.328125 C 190.121094 226.355469 190.121094 226.386719 190.136719 226.425781 C 190.191406 226.648438 190.21875 226.871094 190.21875 227.105469 C 190.21875 228.601562 189 229.816406 187.503906 229.816406 C 186.980469 229.816406 186.453125 229.664062 186.007812 229.375 C 185.25 228.875 184.777344 228.019531 184.777344 227.105469 C 184.792969 225.597656 185.996094 224.378906 187.492188 224.378906 Z M 187.492188 224.378906 "/></g></g></svg>