<svg xmlns="http://www.w3.org/2000/svg" xmlns:xlink="http://www.w3.org/1999/xlink" width="500" zoomAndPan="magnify" viewBox="0 0 375 374.999991" height="500" preserveAspectRatio="xMidYMid meet" version="1.2"><defs><clipPath id="7834b60f6e"><path d="M 152 63.496094 L 223 63.496094 L 223 238.246094 L 152 238.246094 Z M 152 63.496094 "/></clipPath></defs><g id="fee6531802"><path style=" stroke:none;fill-rule:nonzero;fill:#1d4355;fill-opacity:1;" d="M 158.902344 87.335938 L 158.902344 121.820312 C 158.902344 137.617188 171.707031 150.421875 187.503906 150.421875 C 203.300781 150.421875 216.105469 137.617188 216.105469 121.820312 L 216.105469 87.335938 C 209.117188 88.566406 202.664062 91.917969 197.636719 96.941406 C 191.144531 103.4375 187.503906 112.242188 187.503906 121.417969 C 187.503906 112.242188 183.863281 103.4375 177.371094 96.941406 C 172.34375 91.917969 165.894531 88.566406 158.902344 87.335938 Z M 158.902344 87.335938 "/><path style=" stroke:none;fill-rule:nonzero;fill:#0072f5;fill-opacity:1;" d="M 158.238281 87.226562 C 158.292969 87.238281 158.347656 87.238281 158.40625 87.253906 C 158.347656 87.238281 158.292969 87.238281 158.238281 87.226562 Z M 158.238281 87.226562 "/><path style=" stroke:none;fill-rule:nonzero;fill:#0072f5;fill-opacity:1;" d="M 157.949219 87.183594 C 157.988281 87.183594 158.03125 87.195312 158.074219 87.195312 C 158.015625 87.195312 157.988281 87.183594 157.949219 87.183594 Z M 157.949219 87.183594 "/><path style=" stroke:none;fill-rule:nonzero;fill:#0072f5;fill-opacity:1;" d="M 156.742188 87.03125 C 156.839844 87.042969 156.9375 87.058594 157.035156 87.058594 C 156.9375 87.042969 156.839844 87.03125 156.742188 87.03125 Z M 156.742188 87.03125 "/><path style=" stroke:none;fill-rule:nonzero;fill:#0072f5;fill-opacity:1;" d="M 155.011719 86.878906 C 155.125 86.878906 155.234375 86.890625 155.34375 86.90625 C 155.234375 86.890625 155.125 86.878906 155.011719 86.878906 Z M 155.011719 86.878906 "/><path style=" stroke:none;fill-rule:nonzero;fill:#0072f5;fill-opacity:1;" d="M 154.003906 86.824219 C 154.058594 86.824219 154.097656 86.824219 154.15625 86.824219 C 154.113281 86.835938 154.058594 86.824219 154.003906 86.824219 Z M 154.003906 86.824219 "/><path style=" stroke:none;fill-rule:nonzero;fill:#0072f5;fill-opacity:1;" d="M 221.3125 86.824219 C 221.203125 86.824219 221.089844 86.824219 220.964844 86.835938 C 221.089844 86.824219 221.203125 86.824219 221.3125 86.824219 Z M 221.3125 86.824219 "/><path style=" stroke:none;fill-rule:nonzero;fill:#0072f5;fill-opacity:1;" d="M 222.835938 86.824219 L 222.835938 121.820312 C 222.835938 140.027344 208.992188 155.253906 190.867188 156.984375 L 190.867188 201.605469 L 246.507812 145.964844 C 246.535156 145.9375 246.5625 145.910156 246.578125 145.894531 C 260.089844 132.382812 260.089844 110.46875 246.578125 96.941406 C 240.277344 90.628906 231.765625 87.003906 222.835938 86.824219 Z M 222.835938 86.824219 "/><path style=" stroke:none;fill-rule:nonzero;fill:#0072f5;fill-opacity:1;" d="M 152.175781 86.824219 C 143.246094 87.003906 134.730469 90.644531 128.417969 96.957031 C 114.90625 110.46875 114.90625 132.382812 128.417969 145.910156 C 128.445312 145.9375 128.472656 145.964844 128.488281 145.980469 L 184.125 201.617188 L 184.125 156.984375 C 166.003906 155.253906 152.160156 140.027344 152.160156 121.820312 L 152.160156 86.824219 Z M 152.175781 86.824219 "/><path style=" stroke:none;fill-rule:nonzero;fill:#0072f5;fill-opacity:1;" d="M 153.503906 86.808594 C 153.558594 86.808594 153.601562 86.808594 153.65625 86.808594 C 153.601562 86.824219 153.546875 86.808594 153.503906 86.808594 Z M 153.503906 86.808594 "/><g clip-rule="nonzero" clip-path="url(#7834b60f6e)"><path style=" stroke:none;fill-rule:nonzero;fill:#289dd2;fill-opacity:1;" d="M 152.175781 63.496094 L 152.175781 86.808594 C 152.394531 86.808594 152.617188 86.796875 152.839844 86.796875 C 154.875 86.796875 156.894531 86.960938 158.902344 87.320312 L 158.902344 70.222656 L 164.9375 70.222656 C 166.792969 70.222656 168.304688 68.714844 168.304688 66.859375 C 168.304688 65.003906 166.792969 63.496094 164.9375 63.496094 C 164.9375 63.496094 164.925781 63.496094 164.925781 63.496094 Z M 209.710938 63.496094 C 207.855469 63.496094 206.347656 65.003906 206.347656 66.859375 C 206.347656 68.714844 207.855469 70.222656 209.710938 70.222656 L 216.105469 70.222656 L 216.105469 87.335938 C 218.113281 86.988281 220.136719 86.808594 222.171875 86.808594 C 222.390625 86.808594 222.613281 86.808594 222.835938 86.824219 L 222.835938 63.496094 L 209.738281 63.496094 C 209.722656 63.496094 209.722656 63.496094 209.710938 63.496094 Z M 184.140625 201.617188 L 184.140625 216.582031 C 179.558594 218.050781 176.457031 222.300781 176.457031 227.105469 C 176.457031 233.210938 181.398438 238.152344 187.503906 238.152344 C 193.609375 238.152344 198.550781 233.210938 198.550781 227.105469 C 198.550781 222.300781 195.453125 218.050781 190.867188 216.582031 L 190.867188 201.632812 L 187.503906 204.996094 Z M 187.492188 224.378906 C 187.492188 224.378906 187.503906 224.378906 187.503906 224.378906 C 188.710938 224.378906 189.773438 225.167969 190.109375 226.328125 C 190.121094 226.355469 190.121094 226.386719 190.136719 226.425781 C 190.191406 226.648438 190.21875 226.871094 190.21875 227.105469 C 190.21875 228.601562 189 229.816406 187.503906 229.816406 C 186.980469 229.816406 186.453125 229.664062 186.007812 229.375 C 185.25 228.875 184.777344 228.019531 184.777344 227.105469 C 184.792969 225.597656 185.996094 224.378906 187.492188 224.378906 Z M 187.492188 224.378906 "/></g><g style="fill:#0072f5;fill-opacity:1;"><g transform="translate(85.911246, 285.661142)"><path style="stroke:none" d="M 2.484375 0 C 2.128906 0 1.953125 -0.175781 1.953125 -0.53125 L 1.953125 -21.46875 C 1.953125 -21.820312 2.128906 -22 2.484375 -22 L 5.84375 -22 C 6.113281 -22 6.320312 -21.882812 6.46875 -21.65625 L 11.03125 -14.296875 C 11.070312 -14.234375 11.117188 -14.203125 11.171875 -14.203125 C 11.222656 -14.203125 11.257812 -14.234375 11.28125 -14.296875 L 15.90625 -21.65625 C 16.050781 -21.882812 16.257812 -22 16.53125 -22 L 19.90625 -22 C 20.257812 -22 20.4375 -21.820312 20.4375 -21.46875 L 20.4375 -0.53125 C 20.4375 -0.175781 20.257812 0 19.90625 0 L 16.53125 0 C 16.175781 0 16 -0.175781 16 -0.53125 L 16 -14.140625 C 16 -14.222656 15.972656 -14.273438 15.921875 -14.296875 C 15.867188 -14.316406 15.820312 -14.285156 15.78125 -14.203125 L 12.609375 -9.015625 C 12.460938 -8.785156 12.253906 -8.671875 11.984375 -8.671875 L 10.375 -8.671875 C 10.101562 -8.671875 9.894531 -8.785156 9.75 -9.015625 L 6.609375 -14.203125 C 6.554688 -14.285156 6.503906 -14.316406 6.453125 -14.296875 C 6.398438 -14.273438 6.375 -14.222656 6.375 -14.140625 L 6.375 -0.53125 C 6.375 -0.175781 6.195312 0 5.84375 0 Z M 2.484375 0 "/></g></g><g style="fill:#0072f5;fill-opacity:1;"><g transform="translate(107.625463, 285.661142)"><path style="stroke:none" d="M 17.203125 -18.734375 C 17.203125 -18.378906 17.019531 -18.203125 16.65625 -18.203125 L 6.53125 -18.203125 C 6.40625 -18.203125 6.34375 -18.140625 6.34375 -18.015625 L 6.34375 -13.203125 C 6.34375 -13.078125 6.40625 -13.015625 6.53125 -13.015625 L 13.109375 -13.015625 C 13.460938 -13.015625 13.640625 -12.835938 13.640625 -12.484375 L 13.640625 -9.75 C 13.640625 -9.394531 13.460938 -9.21875 13.109375 -9.21875 L 6.53125 -9.21875 C 6.40625 -9.21875 6.34375 -9.148438 6.34375 -9.015625 L 6.34375 -4 C 6.34375 -3.863281 6.40625 -3.796875 6.53125 -3.796875 L 16.65625 -3.796875 C 17.019531 -3.796875 17.203125 -3.617188 17.203125 -3.265625 L 17.203125 -0.53125 C 17.203125 -0.175781 17.019531 0 16.65625 0 L 2.453125 0 C 2.097656 0 1.921875 -0.175781 1.921875 -0.53125 L 1.921875 -21.46875 C 1.921875 -21.820312 2.097656 -22 2.453125 -22 L 16.65625 -22 C 17.019531 -22 17.203125 -21.820312 17.203125 -21.46875 Z M 17.203125 -18.734375 "/></g></g><g style="fill:#0072f5;fill-opacity:1;"><g transform="translate(125.348738, 285.661142)"><path style="stroke:none" d="M 2.453125 0 C 2.097656 0 1.921875 -0.175781 1.921875 -0.53125 L 1.921875 -21.46875 C 1.921875 -21.820312 2.097656 -22 2.453125 -22 L 10.15625 -22 C 11.726562 -22 13.101562 -21.722656 14.28125 -21.171875 C 15.46875 -20.617188 16.382812 -19.835938 17.03125 -18.828125 C 17.6875 -17.828125 18.015625 -16.664062 18.015625 -15.34375 L 18.015625 -6.671875 C 18.015625 -5.347656 17.6875 -4.179688 17.03125 -3.171875 C 16.382812 -2.171875 15.46875 -1.390625 14.28125 -0.828125 C 13.101562 -0.273438 11.726562 0 10.15625 0 Z M 6.34375 -4 C 6.34375 -3.863281 6.40625 -3.796875 6.53125 -3.796875 L 10.3125 -3.796875 C 11.269531 -3.796875 12.046875 -4.117188 12.640625 -4.765625 C 13.242188 -5.421875 13.554688 -6.296875 13.578125 -7.390625 L 13.578125 -14.625 C 13.578125 -15.707031 13.273438 -16.570312 12.671875 -17.21875 C 12.078125 -17.875 11.28125 -18.203125 10.28125 -18.203125 L 6.53125 -18.203125 C 6.40625 -18.203125 6.34375 -18.140625 6.34375 -18.015625 Z M 6.34375 -4 "/></g></g><g style="fill:#0072f5;fill-opacity:1;"><g transform="translate(144.140452, 285.661142)"><path style="stroke:none" d="M 2.453125 0 C 2.097656 0 1.921875 -0.175781 1.921875 -0.53125 L 1.921875 -21.46875 C 1.921875 -21.820312 2.097656 -22 2.453125 -22 L 5.8125 -22 C 6.164062 -22 6.34375 -21.820312 6.34375 -21.46875 L 6.34375 -0.53125 C 6.34375 -0.175781 6.164062 0 5.8125 0 Z M 2.453125 0 "/></g></g><g style="fill:#0072f5;fill-opacity:1;"><g transform="translate(151.776397, 285.661142)"><path style="stroke:none" d="M 9.65625 0.25 C 8.019531 0.25 6.582031 -0.0664062 5.34375 -0.703125 C 4.101562 -1.347656 3.148438 -2.242188 2.484375 -3.390625 C 1.816406 -4.546875 1.484375 -5.878906 1.484375 -7.390625 L 1.484375 -14.65625 C 1.484375 -16.15625 1.816406 -17.484375 2.484375 -18.640625 C 3.148438 -19.796875 4.101562 -20.6875 5.34375 -21.3125 C 6.582031 -21.9375 8.019531 -22.25 9.65625 -22.25 C 11.269531 -22.25 12.6875 -21.953125 13.90625 -21.359375 C 15.132812 -20.765625 16.085938 -19.914062 16.765625 -18.8125 C 17.453125 -17.71875 17.796875 -16.445312 17.796875 -15 C 17.796875 -14.8125 17.628906 -14.695312 17.296875 -14.65625 L 13.921875 -14.4375 L 13.796875 -14.4375 C 13.503906 -14.4375 13.359375 -14.488281 13.359375 -14.59375 L 13.359375 -14.78125 C 13.359375 -15.882812 13.015625 -16.769531 12.328125 -17.4375 C 11.648438 -18.113281 10.757812 -18.453125 9.65625 -18.453125 C 8.519531 -18.453125 7.609375 -18.113281 6.921875 -17.4375 C 6.242188 -16.769531 5.90625 -15.882812 5.90625 -14.78125 L 5.90625 -7.203125 C 5.90625 -6.109375 6.242188 -5.222656 6.921875 -4.546875 C 7.609375 -3.878906 8.519531 -3.546875 9.65625 -3.546875 C 10.757812 -3.546875 11.648438 -3.878906 12.328125 -4.546875 C 13.015625 -5.222656 13.359375 -6.109375 13.359375 -7.203125 C 13.359375 -7.304688 13.40625 -7.394531 13.5 -7.46875 C 13.59375 -7.539062 13.722656 -7.566406 13.890625 -7.546875 L 17.265625 -7.390625 C 17.617188 -7.347656 17.796875 -7.296875 17.796875 -7.234375 L 17.796875 -7.078125 C 17.796875 -5.628906 17.453125 -4.347656 16.765625 -3.234375 C 16.085938 -2.128906 15.132812 -1.269531 13.90625 -0.65625 C 12.6875 -0.0507812 11.269531 0.25 9.65625 0.25 Z M 9.65625 0.25 "/></g></g><g style="fill:#0072f5;fill-opacity:1;"><g transform="translate(170.253874, 285.661142)"><path style="stroke:none" d="M 16.0625 0 C 15.769531 0 15.570312 -0.144531 15.46875 -0.4375 L 14.59375 -3.359375 C 14.570312 -3.460938 14.503906 -3.515625 14.390625 -3.515625 L 6.703125 -3.515625 C 6.585938 -3.515625 6.519531 -3.460938 6.5 -3.359375 L 5.625 -0.4375 C 5.519531 -0.144531 5.320312 0 5.03125 0 L 1.390625 0 C 1.191406 0 1.050781 -0.0546875 0.96875 -0.171875 C 0.882812 -0.285156 0.875 -0.425781 0.9375 -0.59375 L 7.640625 -21.5625 C 7.742188 -21.851562 7.941406 -22 8.234375 -22 L 12.859375 -22 C 13.148438 -22 13.347656 -21.851562 13.453125 -21.5625 L 20.15625 -0.59375 C 20.175781 -0.550781 20.1875 -0.488281 20.1875 -0.40625 C 20.1875 -0.28125 20.144531 -0.179688 20.0625 -0.109375 C 19.976562 -0.0351562 19.863281 0 19.71875 0 Z M 7.609375 -7.171875 C 7.585938 -7.023438 7.640625 -6.953125 7.765625 -6.953125 L 13.328125 -6.953125 C 13.453125 -6.953125 13.503906 -7.023438 13.484375 -7.171875 L 10.65625 -16.75 C 10.632812 -16.832031 10.597656 -16.875 10.546875 -16.875 C 10.492188 -16.875 10.445312 -16.832031 10.40625 -16.75 Z M 7.609375 -7.171875 "/></g></g><g style="fill:#0072f5;fill-opacity:1;"><g transform="translate(190.711098, 285.661142)"><path style="stroke:none" d="M 2.453125 0 C 2.097656 0 1.921875 -0.175781 1.921875 -0.53125 L 1.921875 -21.46875 C 1.921875 -21.820312 2.097656 -22 2.453125 -22 L 5.8125 -22 C 6.164062 -22 6.34375 -21.820312 6.34375 -21.46875 L 6.34375 -4 C 6.34375 -3.863281 6.40625 -3.796875 6.53125 -3.796875 L 16.625 -3.796875 C 16.988281 -3.796875 17.171875 -3.617188 17.171875 -3.265625 L 17.171875 -0.53125 C 17.171875 -0.175781 16.988281 0 16.625 0 Z M 2.453125 0 "/></g></g><g style="fill:#0072f5;fill-opacity:1;"><g transform="translate(208.057279, 285.661142)"><path style="stroke:none" d=""/></g></g><g style="fill:#0072f5;fill-opacity:1;"><g transform="translate(213.713464, 285.661142)"><path style="stroke:none" d="M 2.453125 0 C 2.097656 0 1.921875 -0.175781 1.921875 -0.53125 L 1.921875 -21.46875 C 1.921875 -21.820312 2.097656 -22 2.453125 -22 L 10.15625 -22 C 11.726562 -22 13.101562 -21.722656 14.28125 -21.171875 C 15.46875 -20.617188 16.382812 -19.835938 17.03125 -18.828125 C 17.6875 -17.828125 18.015625 -16.664062 18.015625 -15.34375 L 18.015625 -6.671875 C 18.015625 -5.347656 17.6875 -4.179688 17.03125 -3.171875 C 16.382812 -2.171875 15.46875 -1.390625 14.28125 -0.828125 C 13.101562 -0.273438 11.726562 0 10.15625 0 Z M 6.34375 -4 C 6.34375 -3.863281 6.40625 -3.796875 6.53125 -3.796875 L 10.3125 -3.796875 C 11.269531 -3.796875 12.046875 -4.117188 12.640625 -4.765625 C 13.242188 -5.421875 13.554688 -6.296875 13.578125 -7.390625 L 13.578125 -14.625 C 13.578125 -15.707031 13.273438 -16.570312 12.671875 -17.21875 C 12.078125 -17.875 11.28125 -18.203125 10.28125 -18.203125 L 6.53125 -18.203125 C 6.40625 -18.203125 6.34375 -18.140625 6.34375 -18.015625 Z M 6.34375 -4 "/></g></g><g style="fill:#0072f5;fill-opacity:1;"><g transform="translate(232.505178, 285.661142)"><path style="stroke:none" d="M 16.0625 0 C 15.769531 0 15.570312 -0.144531 15.46875 -0.4375 L 14.59375 -3.359375 C 14.570312 -3.460938 14.503906 -3.515625 14.390625 -3.515625 L 6.703125 -3.515625 C 6.585938 -3.515625 6.519531 -3.460938 6.5 -3.359375 L 5.625 -0.4375 C 5.519531 -0.144531 5.320312 0 5.03125 0 L 1.390625 0 C 1.191406 0 1.050781 -0.0546875 0.96875 -0.171875 C 0.882812 -0.285156 0.875 -0.425781 0.9375 -0.59375 L 7.640625 -21.5625 C 7.742188 -21.851562 7.941406 -22 8.234375 -22 L 12.859375 -22 C 13.148438 -22 13.347656 -21.851562 13.453125 -21.5625 L 20.15625 -0.59375 C 20.175781 -0.550781 20.1875 -0.488281 20.1875 -0.40625 C 20.1875 -0.28125 20.144531 -0.179688 20.0625 -0.109375 C 19.976562 -0.0351562 19.863281 0 19.71875 0 Z M 7.609375 -7.171875 C 7.585938 -7.023438 7.640625 -6.953125 7.765625 -6.953125 L 13.328125 -6.953125 C 13.453125 -6.953125 13.503906 -7.023438 13.484375 -7.171875 L 10.65625 -16.75 C 10.632812 -16.832031 10.597656 -16.875 10.546875 -16.875 C 10.492188 -16.875 10.445312 -16.832031 10.40625 -16.75 Z M 7.609375 -7.171875 "/></g></g><g style="fill:#0072f5;fill-opacity:1;"><g transform="translate(252.962402, 285.661142)"><path style="stroke:none" d="M 16.9375 -22 C 17.300781 -22 17.484375 -21.820312 17.484375 -21.46875 L 17.484375 -18.703125 C 17.484375 -18.347656 17.300781 -18.171875 16.9375 -18.171875 L 11.5 -18.171875 C 11.375 -18.171875 11.3125 -18.109375 11.3125 -17.984375 L 11.3125 -0.53125 C 11.3125 -0.175781 11.132812 0 10.78125 0 L 7.421875 0 C 7.066406 0 6.890625 -0.175781 6.890625 -0.53125 L 6.890625 -17.984375 C 6.890625 -18.109375 6.828125 -18.171875 6.703125 -18.171875 L 1.421875 -18.171875 C 1.054688 -18.171875 0.875 -18.347656 0.875 -18.703125 L 0.875 -21.46875 C 0.875 -21.820312 1.054688 -22 1.421875 -22 Z M 16.9375 -22 "/></g></g><g style="fill:#0072f5;fill-opacity:1;"><g transform="translate(270.717099, 285.661142)"><path style="stroke:none" d="M 17.203125 -18.734375 C 17.203125 -18.378906 17.019531 -18.203125 16.65625 -18.203125 L 6.53125 -18.203125 C 6.40625 -18.203125 6.34375 -18.140625 6.34375 -18.015625 L 6.34375 -13.203125 C 6.34375 -13.078125 6.40625 -13.015625 6.53125 -13.015625 L 13.109375 -13.015625 C 13.460938 -13.015625 13.640625 -12.835938 13.640625 -12.484375 L 13.640625 -9.75 C 13.640625 -9.394531 13.460938 -9.21875 13.109375 -9.21875 L 6.53125 -9.21875 C 6.40625 -9.21875 6.34375 -9.148438 6.34375 -9.015625 L 6.34375 -4 C 6.34375 -3.863281 6.40625 -3.796875 6.53125 -3.796875 L 16.65625 -3.796875 C 17.019531 -3.796875 17.203125 -3.617188 17.203125 -3.265625 L 17.203125 -0.53125 C 17.203125 -0.175781 17.019531 0 16.65625 0 L 2.453125 0 C 2.097656 0 1.921875 -0.175781 1.921875 -0.53125 L 1.921875 -21.46875 C 1.921875 -21.820312 2.097656 -22 2.453125 -22 L 16.65625 -22 C 17.019531 -22 17.203125 -21.820312 17.203125 -21.46875 Z M 17.203125 -18.734375 "/></g></g><g style="fill:#289dd2;fill-opacity:1;"><g transform="translate(42.677924, 308.013193)"><path style="stroke:none" d="M 6.28125 -12.25 C 7.3125 -12.25 8.132812 -11.929688 8.75 -11.296875 C 9.375 -10.671875 9.6875 -9.847656 9.6875 -8.828125 C 9.6875 -7.804688 9.367188 -6.988281 8.734375 -6.375 C 8.109375 -5.757812 7.273438 -5.453125 6.234375 -5.453125 L 2.84375 -5.453125 C 2.789062 -5.453125 2.765625 -5.421875 2.765625 -5.359375 L 2.765625 -0.234375 C 2.765625 -0.078125 2.6875 0 2.53125 0 L 1.75 0 C 1.59375 0 1.515625 -0.078125 1.515625 -0.234375 L 1.515625 -12.015625 C 1.515625 -12.171875 1.59375 -12.25 1.75 -12.25 Z M 6.15625 -6.484375 C 6.832031 -6.484375 7.382812 -6.691406 7.8125 -7.109375 C 8.25 -7.535156 8.46875 -8.097656 8.46875 -8.796875 C 8.46875 -9.515625 8.25 -10.085938 7.8125 -10.515625 C 7.382812 -10.941406 6.832031 -11.15625 6.15625 -11.15625 L 2.84375 -11.15625 C 2.789062 -11.15625 2.765625 -11.128906 2.765625 -11.078125 L 2.765625 -6.5625 C 2.765625 -6.507812 2.789062 -6.484375 2.84375 -6.484375 Z M 6.15625 -6.484375 "/></g></g><g style="fill:#289dd2;fill-opacity:1;"><g transform="translate(53.087527, 308.013193)"><path style="stroke:none" d="M 1.625 0 C 1.46875 0 1.390625 -0.078125 1.390625 -0.234375 L 1.390625 -12 C 1.390625 -12.15625 1.46875 -12.234375 1.625 -12.234375 L 2.40625 -12.234375 C 2.5625 -12.234375 2.640625 -12.15625 2.640625 -12 L 2.640625 -0.234375 C 2.640625 -0.078125 2.5625 0 2.40625 0 Z M 1.625 0 "/></g></g><g style="fill:#289dd2;fill-opacity:1;"><g transform="translate(57.209444, 308.013193)"><path style="stroke:none" d="M 4.453125 -8.984375 C 5.503906 -8.984375 6.316406 -8.710938 6.890625 -8.171875 C 7.460938 -7.640625 7.75 -6.929688 7.75 -6.046875 L 7.75 -0.234375 C 7.75 -0.078125 7.675781 0 7.53125 0 L 6.75 0 C 6.59375 0 6.515625 -0.078125 6.515625 -0.234375 L 6.515625 -0.859375 C 6.515625 -0.890625 6.503906 -0.910156 6.484375 -0.921875 C 6.460938 -0.929688 6.4375 -0.921875 6.40625 -0.890625 C 6.09375 -0.554688 5.703125 -0.300781 5.234375 -0.125 C 4.765625 0.0507812 4.25 0.140625 3.6875 0.140625 C 2.875 0.140625 2.1875 -0.0664062 1.625 -0.484375 C 1.070312 -0.910156 0.796875 -1.550781 0.796875 -2.40625 C 0.796875 -3.28125 1.113281 -3.96875 1.75 -4.46875 C 2.382812 -4.976562 3.269531 -5.234375 4.40625 -5.234375 L 6.421875 -5.234375 C 6.484375 -5.234375 6.515625 -5.265625 6.515625 -5.328125 L 6.515625 -5.96875 C 6.515625 -6.5625 6.347656 -7.03125 6.015625 -7.375 C 5.679688 -7.71875 5.164062 -7.890625 4.46875 -7.890625 C 3.925781 -7.890625 3.476562 -7.785156 3.125 -7.578125 C 2.78125 -7.367188 2.5625 -7.078125 2.46875 -6.703125 C 2.425781 -6.566406 2.335938 -6.507812 2.203125 -6.53125 L 1.34375 -6.640625 C 1.195312 -6.660156 1.128906 -6.722656 1.140625 -6.828125 C 1.253906 -7.472656 1.609375 -7.992188 2.203125 -8.390625 C 2.804688 -8.785156 3.554688 -8.984375 4.453125 -8.984375 Z M 3.96875 -0.921875 C 4.65625 -0.921875 5.25 -1.09375 5.75 -1.4375 C 6.257812 -1.78125 6.515625 -2.242188 6.515625 -2.828125 L 6.515625 -4.171875 C 6.515625 -4.234375 6.484375 -4.265625 6.421875 -4.265625 L 4.59375 -4.265625 C 3.820312 -4.265625 3.203125 -4.101562 2.734375 -3.78125 C 2.273438 -3.46875 2.046875 -3.035156 2.046875 -2.484375 C 2.046875 -1.972656 2.222656 -1.582031 2.578125 -1.3125 C 2.941406 -1.050781 3.40625 -0.921875 3.96875 -0.921875 Z M 3.96875 -0.921875 "/></g></g><g style="fill:#289dd2;fill-opacity:1;"><g transform="translate(66.204309, 308.013193)"><path style="stroke:none" d="M 5.359375 -8.03125 C 5.359375 -7.882812 5.285156 -7.8125 5.140625 -7.8125 L 3.234375 -7.8125 C 3.171875 -7.8125 3.140625 -7.78125 3.140625 -7.71875 L 3.140625 -2.625 C 3.140625 -2.0625 3.265625 -1.664062 3.515625 -1.4375 C 3.765625 -1.207031 4.160156 -1.09375 4.703125 -1.09375 L 5.078125 -1.09375 C 5.234375 -1.09375 5.3125 -1.019531 5.3125 -0.875 L 5.3125 -0.265625 C 5.3125 -0.109375 5.234375 -0.0234375 5.078125 -0.015625 L 4.484375 -0.015625 C 3.648438 -0.015625 3.015625 -0.171875 2.578125 -0.484375 C 2.148438 -0.796875 1.9375 -1.378906 1.9375 -2.234375 L 1.9375 -7.71875 C 1.9375 -7.78125 1.910156 -7.8125 1.859375 -7.8125 L 0.859375 -7.8125 C 0.703125 -7.8125 0.625 -7.882812 0.625 -8.03125 L 0.625 -8.609375 C 0.625 -8.765625 0.703125 -8.84375 0.859375 -8.84375 L 1.859375 -8.84375 C 1.910156 -8.84375 1.9375 -8.867188 1.9375 -8.921875 L 1.9375 -10.890625 C 1.9375 -11.035156 2.015625 -11.109375 2.171875 -11.109375 L 2.921875 -11.109375 C 3.066406 -11.109375 3.140625 -11.035156 3.140625 -10.890625 L 3.140625 -8.921875 C 3.140625 -8.867188 3.171875 -8.84375 3.234375 -8.84375 L 5.140625 -8.84375 C 5.285156 -8.84375 5.359375 -8.765625 5.359375 -8.609375 Z M 5.359375 -8.03125 "/></g></g><g style="fill:#289dd2;fill-opacity:1;"><g transform="translate(72.631711, 308.013193)"><path style="stroke:none" d="M 4.453125 -8.984375 C 5.503906 -8.984375 6.316406 -8.710938 6.890625 -8.171875 C 7.460938 -7.640625 7.75 -6.929688 7.75 -6.046875 L 7.75 -0.234375 C 7.75 -0.078125 7.675781 0 7.53125 0 L 6.75 0 C 6.59375 0 6.515625 -0.078125 6.515625 -0.234375 L 6.515625 -0.859375 C 6.515625 -0.890625 6.503906 -0.910156 6.484375 -0.921875 C 6.460938 -0.929688 6.4375 -0.921875 6.40625 -0.890625 C 6.09375 -0.554688 5.703125 -0.300781 5.234375 -0.125 C 4.765625 0.0507812 4.25 0.140625 3.6875 0.140625 C 2.875 0.140625 2.1875 -0.0664062 1.625 -0.484375 C 1.070312 -0.910156 0.796875 -1.550781 0.796875 -2.40625 C 0.796875 -3.28125 1.113281 -3.96875 1.75 -4.46875 C 2.382812 -4.976562 3.269531 -5.234375 4.40625 -5.234375 L 6.421875 -5.234375 C 6.484375 -5.234375 6.515625 -5.265625 6.515625 -5.328125 L 6.515625 -5.96875 C 6.515625 -6.5625 6.347656 -7.03125 6.015625 -7.375 C 5.679688 -7.71875 5.164062 -7.890625 4.46875 -7.890625 C 3.925781 -7.890625 3.476562 -7.785156 3.125 -7.578125 C 2.78125 -7.367188 2.5625 -7.078125 2.46875 -6.703125 C 2.425781 -6.566406 2.335938 -6.507812 2.203125 -6.53125 L 1.34375 -6.640625 C 1.195312 -6.660156 1.128906 -6.722656 1.140625 -6.828125 C 1.253906 -7.472656 1.609375 -7.992188 2.203125 -8.390625 C 2.804688 -8.785156 3.554688 -8.984375 4.453125 -8.984375 Z M 3.96875 -0.921875 C 4.65625 -0.921875 5.25 -1.09375 5.75 -1.4375 C 6.257812 -1.78125 6.515625 -2.242188 6.515625 -2.828125 L 6.515625 -4.171875 C 6.515625 -4.234375 6.484375 -4.265625 6.421875 -4.265625 L 4.59375 -4.265625 C 3.820312 -4.265625 3.203125 -4.101562 2.734375 -3.78125 C 2.273438 -3.46875 2.046875 -3.035156 2.046875 -2.484375 C 2.046875 -1.972656 2.222656 -1.582031 2.578125 -1.3125 C 2.941406 -1.050781 3.40625 -0.921875 3.96875 -0.921875 Z M 3.96875 -0.921875 "/></g></g><g style="fill:#289dd2;fill-opacity:1;"><g transform="translate(81.626576, 308.013193)"><path style="stroke:none" d="M 4.890625 -11.140625 C 4.253906 -11.140625 3.816406 -10.992188 3.578125 -10.703125 C 3.347656 -10.421875 3.234375 -9.941406 3.234375 -9.265625 L 3.234375 -8.921875 C 3.234375 -8.867188 3.257812 -8.84375 3.3125 -8.84375 L 5.203125 -8.84375 C 5.359375 -8.84375 5.4375 -8.765625 5.4375 -8.609375 L 5.4375 -7.9375 C 5.4375 -7.78125 5.359375 -7.703125 5.203125 -7.703125 L 3.3125 -7.703125 C 3.257812 -7.703125 3.234375 -7.671875 3.234375 -7.609375 L 3.234375 -0.234375 C 3.234375 -0.078125 3.15625 0 3 0 L 2.234375 0 C 2.085938 0 2.015625 -0.078125 2.015625 -0.234375 L 2.015625 -7.609375 C 2.015625 -7.671875 1.984375 -7.703125 1.921875 -7.703125 L 0.828125 -7.703125 C 0.671875 -7.703125 0.59375 -7.78125 0.59375 -7.9375 L 0.59375 -8.609375 C 0.59375 -8.765625 0.671875 -8.84375 0.828125 -8.84375 L 1.921875 -8.84375 C 1.984375 -8.84375 2.015625 -8.867188 2.015625 -8.921875 L 2.015625 -9.328125 C 2.015625 -10.046875 2.09375 -10.613281 2.25 -11.03125 C 2.414062 -11.445312 2.695312 -11.75 3.09375 -11.9375 C 3.5 -12.132812 4.0625 -12.234375 4.78125 -12.234375 L 5.234375 -12.234375 C 5.390625 -12.234375 5.46875 -12.15625 5.46875 -12 L 5.46875 -11.375 C 5.46875 -11.21875 5.390625 -11.140625 5.234375 -11.140625 Z M 4.890625 -11.140625 "/></g></g><g style="fill:#289dd2;fill-opacity:1;"><g transform="translate(87.914249, 308.013193)"><path style="stroke:none" d="M 4.78125 0.140625 C 3.9375 0.140625 3.210938 -0.0703125 2.609375 -0.5 C 2.015625 -0.9375 1.597656 -1.53125 1.359375 -2.28125 C 1.203125 -2.820312 1.125 -3.539062 1.125 -4.4375 C 1.125 -5.320312 1.195312 -6.03125 1.34375 -6.5625 C 1.570312 -7.3125 1.988281 -7.898438 2.59375 -8.328125 C 3.195312 -8.765625 3.925781 -8.984375 4.78125 -8.984375 C 5.625 -8.984375 6.34375 -8.765625 6.9375 -8.328125 C 7.539062 -7.898438 7.953125 -7.316406 8.171875 -6.578125 C 8.335938 -6.023438 8.421875 -5.3125 8.421875 -4.4375 C 8.421875 -3.539062 8.335938 -2.820312 8.171875 -2.28125 C 7.941406 -1.53125 7.523438 -0.9375 6.921875 -0.5 C 6.328125 -0.0703125 5.613281 0.140625 4.78125 0.140625 Z M 4.78125 -0.9375 C 5.34375 -0.9375 5.820312 -1.09375 6.21875 -1.40625 C 6.613281 -1.71875 6.878906 -2.132812 7.015625 -2.65625 C 7.109375 -3.03125 7.15625 -3.617188 7.15625 -4.421875 C 7.15625 -5.253906 7.109375 -5.84375 7.015625 -6.1875 C 6.890625 -6.707031 6.625 -7.117188 6.21875 -7.421875 C 5.820312 -7.734375 5.332031 -7.890625 4.75 -7.890625 C 4.1875 -7.890625 3.707031 -7.734375 3.3125 -7.421875 C 2.914062 -7.117188 2.648438 -6.707031 2.515625 -6.1875 C 2.421875 -5.84375 2.375 -5.253906 2.375 -4.421875 C 2.375 -3.578125 2.421875 -2.988281 2.515625 -2.65625 C 2.640625 -2.132812 2.898438 -1.71875 3.296875 -1.40625 C 3.703125 -1.09375 4.195312 -0.9375 4.78125 -0.9375 Z M 4.78125 -0.9375 "/></g></g><g style="fill:#289dd2;fill-opacity:1;"><g transform="translate(97.520413, 308.013193)"><path style="stroke:none" d="M 4.96875 -8.921875 C 5.34375 -8.921875 5.660156 -8.851562 5.921875 -8.71875 C 6.035156 -8.664062 6.078125 -8.570312 6.046875 -8.4375 L 5.875 -7.671875 C 5.832031 -7.523438 5.738281 -7.476562 5.59375 -7.53125 C 5.375 -7.601562 5.085938 -7.628906 4.734375 -7.609375 C 4.128906 -7.585938 3.628906 -7.363281 3.234375 -6.9375 C 2.835938 -6.519531 2.640625 -5.984375 2.640625 -5.328125 L 2.640625 -0.234375 C 2.640625 -0.078125 2.5625 0 2.40625 0 L 1.625 0 C 1.46875 0 1.390625 -0.078125 1.390625 -0.234375 L 1.390625 -8.609375 C 1.390625 -8.765625 1.46875 -8.84375 1.625 -8.84375 L 2.40625 -8.84375 C 2.5625 -8.84375 2.640625 -8.765625 2.640625 -8.609375 L 2.640625 -7.640625 C 2.640625 -7.585938 2.644531 -7.554688 2.65625 -7.546875 C 2.675781 -7.546875 2.695312 -7.5625 2.71875 -7.59375 C 2.96875 -8.019531 3.28125 -8.347656 3.65625 -8.578125 C 4.039062 -8.804688 4.476562 -8.921875 4.96875 -8.921875 Z M 4.96875 -8.921875 "/></g></g><g style="fill:#289dd2;fill-opacity:1;"><g transform="translate(103.947816, 308.013193)"><path style="stroke:none" d="M 10.34375 -8.96875 C 11.21875 -8.96875 11.90625 -8.703125 12.40625 -8.171875 C 12.914062 -7.648438 13.171875 -6.9375 13.171875 -6.03125 L 13.171875 -0.234375 C 13.171875 -0.078125 13.09375 0 12.9375 0 L 12.171875 0 C 12.023438 0 11.953125 -0.078125 11.953125 -0.234375 L 11.953125 -5.78125 C 11.953125 -6.425781 11.765625 -6.9375 11.390625 -7.3125 C 11.023438 -7.6875 10.546875 -7.875 9.953125 -7.875 C 9.335938 -7.875 8.835938 -7.6875 8.453125 -7.3125 C 8.078125 -6.945312 7.890625 -6.445312 7.890625 -5.8125 L 7.890625 -0.234375 C 7.890625 -0.078125 7.816406 0 7.671875 0 L 6.875 0 C 6.726562 0 6.65625 -0.078125 6.65625 -0.234375 L 6.65625 -5.78125 C 6.65625 -6.425781 6.472656 -6.9375 6.109375 -7.3125 C 5.753906 -7.6875 5.273438 -7.875 4.671875 -7.875 C 4.046875 -7.875 3.550781 -7.6875 3.1875 -7.3125 C 2.820312 -6.945312 2.640625 -6.445312 2.640625 -5.8125 L 2.640625 -0.234375 C 2.640625 -0.078125 2.5625 0 2.40625 0 L 1.625 0 C 1.46875 0 1.390625 -0.078125 1.390625 -0.234375 L 1.390625 -8.609375 C 1.390625 -8.765625 1.46875 -8.84375 1.625 -8.84375 L 2.40625 -8.84375 C 2.5625 -8.84375 2.640625 -8.765625 2.640625 -8.609375 L 2.640625 -8 C 2.640625 -7.96875 2.648438 -7.941406 2.671875 -7.921875 C 2.691406 -7.910156 2.71875 -7.925781 2.75 -7.96875 C 3 -8.300781 3.320312 -8.550781 3.71875 -8.71875 C 4.113281 -8.882812 4.554688 -8.96875 5.046875 -8.96875 C 5.640625 -8.96875 6.148438 -8.84375 6.578125 -8.59375 C 7.015625 -8.351562 7.34375 -8.007812 7.5625 -7.5625 C 7.59375 -7.488281 7.628906 -7.484375 7.671875 -7.546875 C 7.921875 -8.023438 8.28125 -8.378906 8.75 -8.609375 C 9.21875 -8.847656 9.75 -8.96875 10.34375 -8.96875 Z M 10.34375 -8.96875 "/></g></g><g style="fill:#289dd2;fill-opacity:1;"><g transform="translate(118.461867, 308.013193)"><path style="stroke:none" d="M 4.453125 -8.984375 C 5.503906 -8.984375 6.316406 -8.710938 6.890625 -8.171875 C 7.460938 -7.640625 7.75 -6.929688 7.75 -6.046875 L 7.75 -0.234375 C 7.75 -0.078125 7.675781 0 7.53125 0 L 6.75 0 C 6.59375 0 6.515625 -0.078125 6.515625 -0.234375 L 6.515625 -0.859375 C 6.515625 -0.890625 6.503906 -0.910156 6.484375 -0.921875 C 6.460938 -0.929688 6.4375 -0.921875 6.40625 -0.890625 C 6.09375 -0.554688 5.703125 -0.300781 5.234375 -0.125 C 4.765625 0.0507812 4.25 0.140625 3.6875 0.140625 C 2.875 0.140625 2.1875 -0.0664062 1.625 -0.484375 C 1.070312 -0.910156 0.796875 -1.550781 0.796875 -2.40625 C 0.796875 -3.28125 1.113281 -3.96875 1.75 -4.46875 C 2.382812 -4.976562 3.269531 -5.234375 4.40625 -5.234375 L 6.421875 -5.234375 C 6.484375 -5.234375 6.515625 -5.265625 6.515625 -5.328125 L 6.515625 -5.96875 C 6.515625 -6.5625 6.347656 -7.03125 6.015625 -7.375 C 5.679688 -7.71875 5.164062 -7.890625 4.46875 -7.890625 C 3.925781 -7.890625 3.476562 -7.785156 3.125 -7.578125 C 2.78125 -7.367188 2.5625 -7.078125 2.46875 -6.703125 C 2.425781 -6.566406 2.335938 -6.507812 2.203125 -6.53125 L 1.34375 -6.640625 C 1.195312 -6.660156 1.128906 -6.722656 1.140625 -6.828125 C 1.253906 -7.472656 1.609375 -7.992188 2.203125 -8.390625 C 2.804688 -8.785156 3.554688 -8.984375 4.453125 -8.984375 Z M 3.96875 -0.921875 C 4.65625 -0.921875 5.25 -1.09375 5.75 -1.4375 C 6.257812 -1.78125 6.515625 -2.242188 6.515625 -2.828125 L 6.515625 -4.171875 C 6.515625 -4.234375 6.484375 -4.265625 6.421875 -4.265625 L 4.59375 -4.265625 C 3.820312 -4.265625 3.203125 -4.101562 2.734375 -3.78125 C 2.273438 -3.46875 2.046875 -3.035156 2.046875 -2.484375 C 2.046875 -1.972656 2.222656 -1.582031 2.578125 -1.3125 C 2.941406 -1.050781 3.40625 -0.921875 3.96875 -0.921875 Z M 3.96875 -0.921875 "/></g></g><g style="fill:#289dd2;fill-opacity:1;"><g transform="translate(127.456731, 308.013193)"><path style="stroke:none" d=""/></g></g><g style="fill:#289dd2;fill-opacity:1;"><g transform="translate(131.019743, 308.013193)"><path style="stroke:none" d="M 6.828125 -12 C 6.828125 -12.15625 6.90625 -12.234375 7.0625 -12.234375 L 7.84375 -12.234375 C 8 -12.234375 8.078125 -12.15625 8.078125 -12 L 8.078125 -0.234375 C 8.078125 -0.078125 8 0 7.84375 0 L 7.0625 0 C 6.90625 0 6.828125 -0.078125 6.828125 -0.234375 L 6.828125 -0.890625 C 6.828125 -0.921875 6.816406 -0.9375 6.796875 -0.9375 C 6.773438 -0.945312 6.75 -0.941406 6.71875 -0.921875 C 6.46875 -0.585938 6.148438 -0.328125 5.765625 -0.140625 C 5.390625 0.046875 4.96875 0.140625 4.5 0.140625 C 3.6875 0.140625 3.003906 -0.0664062 2.453125 -0.484375 C 1.898438 -0.910156 1.519531 -1.484375 1.3125 -2.203125 C 1.144531 -2.722656 1.0625 -3.460938 1.0625 -4.421875 C 1.0625 -5.390625 1.132812 -6.109375 1.28125 -6.578125 C 1.488281 -7.328125 1.867188 -7.914062 2.421875 -8.34375 C 2.984375 -8.769531 3.675781 -8.984375 4.5 -8.984375 C 4.957031 -8.984375 5.378906 -8.890625 5.765625 -8.703125 C 6.148438 -8.523438 6.46875 -8.269531 6.71875 -7.9375 C 6.75 -7.894531 6.773438 -7.878906 6.796875 -7.890625 C 6.816406 -7.898438 6.828125 -7.925781 6.828125 -7.96875 Z M 6.5 -2.28125 C 6.601562 -2.519531 6.675781 -2.796875 6.71875 -3.109375 C 6.769531 -3.421875 6.796875 -3.859375 6.796875 -4.421875 C 6.796875 -4.984375 6.769531 -5.421875 6.71875 -5.734375 C 6.675781 -6.054688 6.597656 -6.335938 6.484375 -6.578125 C 6.335938 -6.972656 6.101562 -7.289062 5.78125 -7.53125 C 5.46875 -7.769531 5.085938 -7.890625 4.640625 -7.890625 C 4.179688 -7.890625 3.78125 -7.773438 3.4375 -7.546875 C 3.101562 -7.316406 2.859375 -7.007812 2.703125 -6.625 C 2.566406 -6.363281 2.46875 -6.070312 2.40625 -5.75 C 2.34375 -5.4375 2.3125 -4.992188 2.3125 -4.421875 C 2.3125 -3.867188 2.332031 -3.4375 2.375 -3.125 C 2.425781 -2.820312 2.507812 -2.550781 2.625 -2.3125 C 2.757812 -1.882812 3.003906 -1.546875 3.359375 -1.296875 C 3.710938 -1.054688 4.132812 -0.9375 4.625 -0.9375 C 5.09375 -0.9375 5.484375 -1.054688 5.796875 -1.296875 C 6.109375 -1.546875 6.34375 -1.875 6.5 -2.28125 Z M 6.5 -2.28125 "/></g></g><g style="fill:#289dd2;fill-opacity:1;"><g transform="translate(140.556056, 308.013193)"><path style="stroke:none" d="M 4.84375 -0.921875 C 5.363281 -0.929688 5.8125 -1.050781 6.1875 -1.28125 C 6.570312 -1.507812 6.867188 -1.828125 7.078125 -2.234375 C 7.097656 -2.296875 7.132812 -2.335938 7.1875 -2.359375 C 7.25 -2.378906 7.3125 -2.375 7.375 -2.34375 L 7.875 -2.0625 C 8.019531 -1.976562 8.054688 -1.878906 7.984375 -1.765625 C 7.703125 -1.179688 7.28125 -0.71875 6.71875 -0.375 C 6.164062 -0.03125 5.503906 0.140625 4.734375 0.140625 C 3.921875 0.140625 3.234375 -0.0507812 2.671875 -0.4375 C 2.109375 -0.820312 1.707031 -1.359375 1.46875 -2.046875 C 1.25 -2.628906 1.140625 -3.429688 1.140625 -4.453125 C 1.140625 -4.953125 1.144531 -5.347656 1.15625 -5.640625 C 1.175781 -5.941406 1.222656 -6.222656 1.296875 -6.484375 C 1.492188 -7.234375 1.890625 -7.835938 2.484375 -8.296875 C 3.085938 -8.753906 3.816406 -8.984375 4.671875 -8.984375 C 5.679688 -8.984375 6.472656 -8.71875 7.046875 -8.1875 C 7.617188 -7.664062 7.988281 -6.925781 8.15625 -5.96875 C 8.226562 -5.601562 8.265625 -5.023438 8.265625 -4.234375 C 8.265625 -4.078125 8.1875 -4 8.03125 -4 L 2.453125 -4 C 2.390625 -4 2.359375 -3.96875 2.359375 -3.90625 C 2.359375 -3.332031 2.394531 -2.910156 2.46875 -2.640625 C 2.59375 -2.117188 2.859375 -1.703125 3.265625 -1.390625 C 3.679688 -1.078125 4.207031 -0.921875 4.84375 -0.921875 Z M 4.671875 -7.890625 C 4.085938 -7.890625 3.609375 -7.738281 3.234375 -7.4375 C 2.859375 -7.144531 2.613281 -6.75 2.5 -6.25 C 2.425781 -6.019531 2.378906 -5.625 2.359375 -5.0625 C 2.359375 -5.007812 2.390625 -4.984375 2.453125 -4.984375 L 6.9375 -4.984375 C 6.988281 -4.984375 7.015625 -5.007812 7.015625 -5.0625 C 6.992188 -5.570312 6.960938 -5.945312 6.921875 -6.1875 C 6.785156 -6.707031 6.523438 -7.117188 6.140625 -7.421875 C 5.753906 -7.734375 5.265625 -7.890625 4.671875 -7.890625 Z M 4.671875 -7.890625 "/></g></g><g style="fill:#289dd2;fill-opacity:1;"><g transform="translate(149.95264, 308.013193)"><path style="stroke:none" d=""/></g></g><g style="fill:#289dd2;fill-opacity:1;"><g transform="translate(153.515652, 308.013193)"><path style="stroke:none" d="M 6.84375 -8.609375 C 6.84375 -8.765625 6.921875 -8.84375 7.078125 -8.84375 L 7.859375 -8.84375 C 8.015625 -8.84375 8.09375 -8.765625 8.09375 -8.609375 L 8.09375 -0.296875 C 8.09375 1.003906 7.710938 1.957031 6.953125 2.5625 C 6.191406 3.164062 5.160156 3.46875 3.859375 3.46875 C 3.617188 3.46875 3.429688 3.460938 3.296875 3.453125 C 3.148438 3.441406 3.078125 3.363281 3.078125 3.21875 L 3.109375 2.515625 C 3.109375 2.347656 3.1875 2.28125 3.34375 2.3125 C 4.570312 2.363281 5.460938 2.179688 6.015625 1.765625 C 6.566406 1.347656 6.84375 0.648438 6.84375 -0.328125 L 6.84375 -0.9375 C 6.84375 -0.976562 6.832031 -1.003906 6.8125 -1.015625 C 6.789062 -1.023438 6.769531 -1.015625 6.75 -0.984375 C 6.207031 -0.296875 5.445312 0.046875 4.46875 0.046875 C 3.71875 0.046875 3.046875 -0.15625 2.453125 -0.5625 C 1.867188 -0.96875 1.476562 -1.539062 1.28125 -2.28125 C 1.132812 -2.757812 1.0625 -3.472656 1.0625 -4.421875 C 1.0625 -4.929688 1.078125 -5.359375 1.109375 -5.703125 C 1.140625 -6.054688 1.203125 -6.375 1.296875 -6.65625 C 1.503906 -7.351562 1.878906 -7.914062 2.421875 -8.34375 C 2.972656 -8.769531 3.632812 -8.984375 4.40625 -8.984375 C 5.414062 -8.984375 6.195312 -8.648438 6.75 -7.984375 C 6.769531 -7.953125 6.789062 -7.941406 6.8125 -7.953125 C 6.832031 -7.960938 6.84375 -7.984375 6.84375 -8.015625 Z M 6.765625 -2.671875 C 6.796875 -2.847656 6.816406 -3.0625 6.828125 -3.3125 C 6.835938 -3.570312 6.84375 -3.945312 6.84375 -4.4375 C 6.84375 -5.03125 6.835938 -5.425781 6.828125 -5.625 C 6.816406 -5.832031 6.789062 -6.023438 6.75 -6.203125 C 6.65625 -6.691406 6.421875 -7.09375 6.046875 -7.40625 C 5.679688 -7.726562 5.222656 -7.890625 4.671875 -7.890625 C 4.117188 -7.890625 3.648438 -7.734375 3.265625 -7.421875 C 2.890625 -7.109375 2.628906 -6.703125 2.484375 -6.203125 C 2.367188 -5.828125 2.3125 -5.242188 2.3125 -4.453125 C 2.3125 -3.597656 2.367188 -3.007812 2.484375 -2.6875 C 2.597656 -2.195312 2.847656 -1.789062 3.234375 -1.46875 C 3.628906 -1.15625 4.109375 -1 4.671875 -1 C 5.234375 -1 5.695312 -1.15625 6.0625 -1.46875 C 6.4375 -1.78125 6.671875 -2.179688 6.765625 -2.671875 Z M 6.765625 -2.671875 "/></g></g><g style="fill:#289dd2;fill-opacity:1;"><g transform="translate(162.929705, 308.013193)"><path style="stroke:none" d="M 4.84375 -0.921875 C 5.363281 -0.929688 5.8125 -1.050781 6.1875 -1.28125 C 6.570312 -1.507812 6.867188 -1.828125 7.078125 -2.234375 C 7.097656 -2.296875 7.132812 -2.335938 7.1875 -2.359375 C 7.25 -2.378906 7.3125 -2.375 7.375 -2.34375 L 7.875 -2.0625 C 8.019531 -1.976562 8.054688 -1.878906 7.984375 -1.765625 C 7.703125 -1.179688 7.28125 -0.71875 6.71875 -0.375 C 6.164062 -0.03125 5.503906 0.140625 4.734375 0.140625 C 3.921875 0.140625 3.234375 -0.0507812 2.671875 -0.4375 C 2.109375 -0.820312 1.707031 -1.359375 1.46875 -2.046875 C 1.25 -2.628906 1.140625 -3.429688 1.140625 -4.453125 C 1.140625 -4.953125 1.144531 -5.347656 1.15625 -5.640625 C 1.175781 -5.941406 1.222656 -6.222656 1.296875 -6.484375 C 1.492188 -7.234375 1.890625 -7.835938 2.484375 -8.296875 C 3.085938 -8.753906 3.816406 -8.984375 4.671875 -8.984375 C 5.679688 -8.984375 6.472656 -8.71875 7.046875 -8.1875 C 7.617188 -7.664062 7.988281 -6.925781 8.15625 -5.96875 C 8.226562 -5.601562 8.265625 -5.023438 8.265625 -4.234375 C 8.265625 -4.078125 8.1875 -4 8.03125 -4 L 2.453125 -4 C 2.390625 -4 2.359375 -3.96875 2.359375 -3.90625 C 2.359375 -3.332031 2.394531 -2.910156 2.46875 -2.640625 C 2.59375 -2.117188 2.859375 -1.703125 3.265625 -1.390625 C 3.679688 -1.078125 4.207031 -0.921875 4.84375 -0.921875 Z M 4.671875 -7.890625 C 4.085938 -7.890625 3.609375 -7.738281 3.234375 -7.4375 C 2.859375 -7.144531 2.613281 -6.75 2.5 -6.25 C 2.425781 -6.019531 2.378906 -5.625 2.359375 -5.0625 C 2.359375 -5.007812 2.390625 -4.984375 2.453125 -4.984375 L 6.9375 -4.984375 C 6.988281 -4.984375 7.015625 -5.007812 7.015625 -5.0625 C 6.992188 -5.570312 6.960938 -5.945312 6.921875 -6.1875 C 6.785156 -6.707031 6.523438 -7.117188 6.140625 -7.421875 C 5.753906 -7.734375 5.265625 -7.890625 4.671875 -7.890625 Z M 4.671875 -7.890625 "/></g></g><g style="fill:#289dd2;fill-opacity:1;"><g transform="translate(172.326289, 308.013193)"><path style="stroke:none" d="M 4.296875 0.09375 C 3.640625 0.09375 3.054688 -0.0078125 2.546875 -0.21875 C 2.046875 -0.4375 1.660156 -0.71875 1.390625 -1.0625 C 1.117188 -1.414062 0.984375 -1.804688 0.984375 -2.234375 L 0.984375 -2.390625 C 0.984375 -2.546875 1.054688 -2.625 1.203125 -2.625 L 1.953125 -2.625 C 2.023438 -2.625 2.082031 -2.609375 2.125 -2.578125 C 2.164062 -2.546875 2.1875 -2.507812 2.1875 -2.46875 L 2.1875 -2.3125 C 2.1875 -1.925781 2.382812 -1.585938 2.78125 -1.296875 C 3.175781 -1.015625 3.675781 -0.875 4.28125 -0.875 C 4.882812 -0.875 5.375 -1.007812 5.75 -1.28125 C 6.125 -1.550781 6.3125 -1.898438 6.3125 -2.328125 C 6.3125 -2.617188 6.21875 -2.851562 6.03125 -3.03125 C 5.84375 -3.21875 5.613281 -3.363281 5.34375 -3.46875 C 5.070312 -3.582031 4.671875 -3.71875 4.140625 -3.875 C 3.484375 -4.0625 2.945312 -4.25 2.53125 -4.4375 C 2.113281 -4.625 1.757812 -4.882812 1.46875 -5.21875 C 1.175781 -5.550781 1.03125 -5.972656 1.03125 -6.484375 C 1.03125 -7.222656 1.320312 -7.8125 1.90625 -8.25 C 2.5 -8.695312 3.273438 -8.921875 4.234375 -8.921875 C 4.867188 -8.921875 5.429688 -8.816406 5.921875 -8.609375 C 6.421875 -8.398438 6.804688 -8.113281 7.078125 -7.75 C 7.347656 -7.382812 7.484375 -6.972656 7.484375 -6.515625 C 7.484375 -6.359375 7.40625 -6.28125 7.25 -6.28125 L 6.53125 -6.28125 C 6.382812 -6.28125 6.3125 -6.320312 6.3125 -6.40625 L 6.3125 -6.515625 C 6.3125 -6.910156 6.117188 -7.238281 5.734375 -7.5 C 5.359375 -7.769531 4.847656 -7.90625 4.203125 -7.90625 C 3.609375 -7.90625 3.128906 -7.785156 2.765625 -7.546875 C 2.410156 -7.316406 2.234375 -6.988281 2.234375 -6.5625 C 2.234375 -6.164062 2.40625 -5.863281 2.75 -5.65625 C 3.09375 -5.445312 3.628906 -5.238281 4.359375 -5.03125 C 5.035156 -4.84375 5.582031 -4.660156 6 -4.484375 C 6.425781 -4.316406 6.789062 -4.0625 7.09375 -3.71875 C 7.394531 -3.382812 7.546875 -2.945312 7.546875 -2.40625 C 7.546875 -1.65625 7.25 -1.050781 6.65625 -0.59375 C 6.070312 -0.132812 5.285156 0.09375 4.296875 0.09375 Z M 4.296875 0.09375 "/></g></g><g style="fill:#289dd2;fill-opacity:1;"><g transform="translate(180.814643, 308.013193)"><path style="stroke:none" d="M 5.359375 -8.03125 C 5.359375 -7.882812 5.285156 -7.8125 5.140625 -7.8125 L 3.234375 -7.8125 C 3.171875 -7.8125 3.140625 -7.78125 3.140625 -7.71875 L 3.140625 -2.625 C 3.140625 -2.0625 3.265625 -1.664062 3.515625 -1.4375 C 3.765625 -1.207031 4.160156 -1.09375 4.703125 -1.09375 L 5.078125 -1.09375 C 5.234375 -1.09375 5.3125 -1.019531 5.3125 -0.875 L 5.3125 -0.265625 C 5.3125 -0.109375 5.234375 -0.0234375 5.078125 -0.015625 L 4.484375 -0.015625 C 3.648438 -0.015625 3.015625 -0.171875 2.578125 -0.484375 C 2.148438 -0.796875 1.9375 -1.378906 1.9375 -2.234375 L 1.9375 -7.71875 C 1.9375 -7.78125 1.910156 -7.8125 1.859375 -7.8125 L 0.859375 -7.8125 C 0.703125 -7.8125 0.625 -7.882812 0.625 -8.03125 L 0.625 -8.609375 C 0.625 -8.765625 0.703125 -8.84375 0.859375 -8.84375 L 1.859375 -8.84375 C 1.910156 -8.84375 1.9375 -8.867188 1.9375 -8.921875 L 1.9375 -10.890625 C 1.9375 -11.035156 2.015625 -11.109375 2.171875 -11.109375 L 2.921875 -11.109375 C 3.066406 -11.109375 3.140625 -11.035156 3.140625 -10.890625 L 3.140625 -8.921875 C 3.140625 -8.867188 3.171875 -8.84375 3.234375 -8.84375 L 5.140625 -8.84375 C 5.285156 -8.84375 5.359375 -8.765625 5.359375 -8.609375 Z M 5.359375 -8.03125 "/></g></g><g style="fill:#289dd2;fill-opacity:1;"><g transform="translate(187.242046, 308.013193)"><path style="stroke:none" d="M 2.15625 -10.421875 C 1.875 -10.421875 1.644531 -10.503906 1.46875 -10.671875 C 1.289062 -10.847656 1.203125 -11.070312 1.203125 -11.34375 C 1.203125 -11.601562 1.289062 -11.816406 1.46875 -11.984375 C 1.644531 -12.148438 1.875 -12.234375 2.15625 -12.234375 C 2.425781 -12.234375 2.648438 -12.148438 2.828125 -11.984375 C 3.003906 -11.816406 3.09375 -11.601562 3.09375 -11.34375 C 3.09375 -11.070312 3.003906 -10.847656 2.828125 -10.671875 C 2.648438 -10.503906 2.425781 -10.421875 2.15625 -10.421875 Z M 1.765625 0 C 1.609375 0 1.53125 -0.078125 1.53125 -0.234375 L 1.53125 -8.609375 C 1.53125 -8.765625 1.609375 -8.84375 1.765625 -8.84375 L 2.546875 -8.84375 C 2.703125 -8.84375 2.78125 -8.765625 2.78125 -8.609375 L 2.78125 -0.234375 C 2.78125 -0.078125 2.703125 0 2.546875 0 Z M 1.765625 0 "/></g></g><g style="fill:#289dd2;fill-opacity:1;"><g transform="translate(191.591014, 308.013193)"><path style="stroke:none" d="M 4.78125 0.140625 C 3.9375 0.140625 3.210938 -0.0703125 2.609375 -0.5 C 2.015625 -0.9375 1.597656 -1.53125 1.359375 -2.28125 C 1.203125 -2.820312 1.125 -3.539062 1.125 -4.4375 C 1.125 -5.320312 1.195312 -6.03125 1.34375 -6.5625 C 1.570312 -7.3125 1.988281 -7.898438 2.59375 -8.328125 C 3.195312 -8.765625 3.925781 -8.984375 4.78125 -8.984375 C 5.625 -8.984375 6.34375 -8.765625 6.9375 -8.328125 C 7.539062 -7.898438 7.953125 -7.316406 8.171875 -6.578125 C 8.335938 -6.023438 8.421875 -5.3125 8.421875 -4.4375 C 8.421875 -3.539062 8.335938 -2.820312 8.171875 -2.28125 C 7.941406 -1.53125 7.523438 -0.9375 6.921875 -0.5 C 6.328125 -0.0703125 5.613281 0.140625 4.78125 0.140625 Z M 4.78125 -0.9375 C 5.34375 -0.9375 5.820312 -1.09375 6.21875 -1.40625 C 6.613281 -1.71875 6.878906 -2.132812 7.015625 -2.65625 C 7.109375 -3.03125 7.15625 -3.617188 7.15625 -4.421875 C 7.15625 -5.253906 7.109375 -5.84375 7.015625 -6.1875 C 6.890625 -6.707031 6.625 -7.117188 6.21875 -7.421875 C 5.820312 -7.734375 5.332031 -7.890625 4.75 -7.890625 C 4.1875 -7.890625 3.707031 -7.734375 3.3125 -7.421875 C 2.914062 -7.117188 2.648438 -6.707031 2.515625 -6.1875 C 2.421875 -5.84375 2.375 -5.253906 2.375 -4.421875 C 2.375 -3.578125 2.421875 -2.988281 2.515625 -2.65625 C 2.640625 -2.132812 2.898438 -1.71875 3.296875 -1.40625 C 3.703125 -1.09375 4.195312 -0.9375 4.78125 -0.9375 Z M 4.234375 -10.21875 C 4.140625 -10.21875 4.078125 -10.242188 4.046875 -10.296875 C 4.023438 -10.347656 4.035156 -10.414062 4.078125 -10.5 L 5.078125 -12.296875 C 5.117188 -12.398438 5.207031 -12.453125 5.34375 -12.453125 L 6.09375 -12.453125 C 6.207031 -12.453125 6.265625 -12.40625 6.265625 -12.3125 C 6.265625 -12.257812 6.253906 -12.210938 6.234375 -12.171875 L 5.109375 -10.375 C 5.035156 -10.269531 4.945312 -10.21875 4.84375 -10.21875 Z M 4.234375 -10.21875 "/></g></g><g style="fill:#289dd2;fill-opacity:1;"><g transform="translate(201.197178, 308.013193)"><path style="stroke:none" d="M 5.0625 -8.96875 C 5.988281 -8.96875 6.726562 -8.691406 7.28125 -8.140625 C 7.832031 -7.585938 8.109375 -6.851562 8.109375 -5.9375 L 8.109375 -0.234375 C 8.109375 -0.078125 8.03125 0 7.875 0 L 7.09375 0 C 6.9375 0 6.859375 -0.078125 6.859375 -0.234375 L 6.859375 -5.6875 C 6.859375 -6.34375 6.664062 -6.867188 6.28125 -7.265625 C 5.90625 -7.671875 5.40625 -7.875 4.78125 -7.875 C 4.1875 -7.875 3.691406 -7.703125 3.296875 -7.359375 C 2.910156 -7.023438 2.691406 -6.585938 2.640625 -6.046875 L 2.640625 -0.234375 C 2.640625 -0.078125 2.5625 0 2.40625 0 L 1.625 0 C 1.46875 0 1.390625 -0.078125 1.390625 -0.234375 L 1.390625 -8.609375 C 1.390625 -8.765625 1.46875 -8.84375 1.625 -8.84375 L 2.40625 -8.84375 C 2.5625 -8.84375 2.640625 -8.765625 2.640625 -8.609375 L 2.640625 -7.96875 C 2.640625 -7.925781 2.648438 -7.894531 2.671875 -7.875 C 2.691406 -7.863281 2.707031 -7.875 2.71875 -7.90625 C 3.238281 -8.613281 4.019531 -8.96875 5.0625 -8.96875 Z M 5.0625 -8.96875 "/></g></g><g style="fill:#289dd2;fill-opacity:1;"><g transform="translate(210.681083, 308.013193)"><path style="stroke:none" d=""/></g></g><g style="fill:#289dd2;fill-opacity:1;"><g transform="translate(214.244095, 308.013193)"><path style="stroke:none" d="M 10.34375 -8.96875 C 11.21875 -8.96875 11.90625 -8.703125 12.40625 -8.171875 C 12.914062 -7.648438 13.171875 -6.9375 13.171875 -6.03125 L 13.171875 -0.234375 C 13.171875 -0.078125 13.09375 0 12.9375 0 L 12.171875 0 C 12.023438 0 11.953125 -0.078125 11.953125 -0.234375 L 11.953125 -5.78125 C 11.953125 -6.425781 11.765625 -6.9375 11.390625 -7.3125 C 11.023438 -7.6875 10.546875 -7.875 9.953125 -7.875 C 9.335938 -7.875 8.835938 -7.6875 8.453125 -7.3125 C 8.078125 -6.945312 7.890625 -6.445312 7.890625 -5.8125 L 7.890625 -0.234375 C 7.890625 -0.078125 7.816406 0 7.671875 0 L 6.875 0 C 6.726562 0 6.65625 -0.078125 6.65625 -0.234375 L 6.65625 -5.78125 C 6.65625 -6.425781 6.472656 -6.9375 6.109375 -7.3125 C 5.753906 -7.6875 5.273438 -7.875 4.671875 -7.875 C 4.046875 -7.875 3.550781 -7.6875 3.1875 -7.3125 C 2.820312 -6.945312 2.640625 -6.445312 2.640625 -5.8125 L 2.640625 -0.234375 C 2.640625 -0.078125 2.5625 0 2.40625 0 L 1.625 0 C 1.46875 0 1.390625 -0.078125 1.390625 -0.234375 L 1.390625 -8.609375 C 1.390625 -8.765625 1.46875 -8.84375 1.625 -8.84375 L 2.40625 -8.84375 C 2.5625 -8.84375 2.640625 -8.765625 2.640625 -8.609375 L 2.640625 -8 C 2.640625 -7.96875 2.648438 -7.941406 2.671875 -7.921875 C 2.691406 -7.910156 2.71875 -7.925781 2.75 -7.96875 C 3 -8.300781 3.320312 -8.550781 3.71875 -8.71875 C 4.113281 -8.882812 4.554688 -8.96875 5.046875 -8.96875 C 5.640625 -8.96875 6.148438 -8.84375 6.578125 -8.59375 C 7.015625 -8.351562 7.34375 -8.007812 7.5625 -7.5625 C 7.59375 -7.488281 7.628906 -7.484375 7.671875 -7.546875 C 7.921875 -8.023438 8.28125 -8.378906 8.75 -8.609375 C 9.21875 -8.847656 9.75 -8.96875 10.34375 -8.96875 Z M 10.34375 -8.96875 "/></g></g><g style="fill:#289dd2;fill-opacity:1;"><g transform="translate(228.758146, 308.013193)"><path style="stroke:none" d="M 4.84375 -0.921875 C 5.363281 -0.929688 5.8125 -1.050781 6.1875 -1.28125 C 6.570312 -1.507812 6.867188 -1.828125 7.078125 -2.234375 C 7.097656 -2.296875 7.132812 -2.335938 7.1875 -2.359375 C 7.25 -2.378906 7.3125 -2.375 7.375 -2.34375 L 7.875 -2.0625 C 8.019531 -1.976562 8.054688 -1.878906 7.984375 -1.765625 C 7.703125 -1.179688 7.28125 -0.71875 6.71875 -0.375 C 6.164062 -0.03125 5.503906 0.140625 4.734375 0.140625 C 3.921875 0.140625 3.234375 -0.0507812 2.671875 -0.4375 C 2.109375 -0.820312 1.707031 -1.359375 1.46875 -2.046875 C 1.25 -2.628906 1.140625 -3.429688 1.140625 -4.453125 C 1.140625 -4.953125 1.144531 -5.347656 1.15625 -5.640625 C 1.175781 -5.941406 1.222656 -6.222656 1.296875 -6.484375 C 1.492188 -7.234375 1.890625 -7.835938 2.484375 -8.296875 C 3.085938 -8.753906 3.816406 -8.984375 4.671875 -8.984375 C 5.679688 -8.984375 6.472656 -8.71875 7.046875 -8.1875 C 7.617188 -7.664062 7.988281 -6.925781 8.15625 -5.96875 C 8.226562 -5.601562 8.265625 -5.023438 8.265625 -4.234375 C 8.265625 -4.078125 8.1875 -4 8.03125 -4 L 2.453125 -4 C 2.390625 -4 2.359375 -3.96875 2.359375 -3.90625 C 2.359375 -3.332031 2.394531 -2.910156 2.46875 -2.640625 C 2.59375 -2.117188 2.859375 -1.703125 3.265625 -1.390625 C 3.679688 -1.078125 4.207031 -0.921875 4.84375 -0.921875 Z M 4.671875 -7.890625 C 4.085938 -7.890625 3.609375 -7.738281 3.234375 -7.4375 C 2.859375 -7.144531 2.613281 -6.75 2.5 -6.25 C 2.425781 -6.019531 2.378906 -5.625 2.359375 -5.0625 C 2.359375 -5.007812 2.390625 -4.984375 2.453125 -4.984375 L 6.9375 -4.984375 C 6.988281 -4.984375 7.015625 -5.007812 7.015625 -5.0625 C 6.992188 -5.570312 6.960938 -5.945312 6.921875 -6.1875 C 6.785156 -6.707031 6.523438 -7.117188 6.140625 -7.421875 C 5.753906 -7.734375 5.265625 -7.890625 4.671875 -7.890625 Z M 4.140625 -10.21875 C 4.046875 -10.21875 3.984375 -10.242188 3.953125 -10.296875 C 3.929688 -10.347656 3.941406 -10.414062 3.984375 -10.5 L 4.984375 -12.296875 C 5.023438 -12.398438 5.113281 -12.453125 5.25 -12.453125 L 6 -12.453125 C 6.113281 -12.453125 6.171875 -12.40625 6.171875 -12.3125 C 6.171875 -12.257812 6.160156 -12.210938 6.140625 -12.171875 L 5.015625 -10.375 C 4.941406 -10.269531 4.851562 -10.21875 4.75 -10.21875 Z M 4.140625 -10.21875 "/></g></g><g style="fill:#289dd2;fill-opacity:1;"><g transform="translate(238.15473, 308.013193)"><path style="stroke:none" d="M 6.828125 -12 C 6.828125 -12.15625 6.90625 -12.234375 7.0625 -12.234375 L 7.84375 -12.234375 C 8 -12.234375 8.078125 -12.15625 8.078125 -12 L 8.078125 -0.234375 C 8.078125 -0.078125 8 0 7.84375 0 L 7.0625 0 C 6.90625 0 6.828125 -0.078125 6.828125 -0.234375 L 6.828125 -0.890625 C 6.828125 -0.921875 6.816406 -0.9375 6.796875 -0.9375 C 6.773438 -0.945312 6.75 -0.941406 6.71875 -0.921875 C 6.46875 -0.585938 6.148438 -0.328125 5.765625 -0.140625 C 5.390625 0.046875 4.96875 0.140625 4.5 0.140625 C 3.6875 0.140625 3.003906 -0.0664062 2.453125 -0.484375 C 1.898438 -0.910156 1.519531 -1.484375 1.3125 -2.203125 C 1.144531 -2.722656 1.0625 -3.460938 1.0625 -4.421875 C 1.0625 -5.390625 1.132812 -6.109375 1.28125 -6.578125 C 1.488281 -7.328125 1.867188 -7.914062 2.421875 -8.34375 C 2.984375 -8.769531 3.675781 -8.984375 4.5 -8.984375 C 4.957031 -8.984375 5.378906 -8.890625 5.765625 -8.703125 C 6.148438 -8.523438 6.46875 -8.269531 6.71875 -7.9375 C 6.75 -7.894531 6.773438 -7.878906 6.796875 -7.890625 C 6.816406 -7.898438 6.828125 -7.925781 6.828125 -7.96875 Z M 6.5 -2.28125 C 6.601562 -2.519531 6.675781 -2.796875 6.71875 -3.109375 C 6.769531 -3.421875 6.796875 -3.859375 6.796875 -4.421875 C 6.796875 -4.984375 6.769531 -5.421875 6.71875 -5.734375 C 6.675781 -6.054688 6.597656 -6.335938 6.484375 -6.578125 C 6.335938 -6.972656 6.101562 -7.289062 5.78125 -7.53125 C 5.46875 -7.769531 5.085938 -7.890625 4.640625 -7.890625 C 4.179688 -7.890625 3.78125 -7.773438 3.4375 -7.546875 C 3.101562 -7.316406 2.859375 -7.007812 2.703125 -6.625 C 2.566406 -6.363281 2.46875 -6.070312 2.40625 -5.75 C 2.34375 -5.4375 2.3125 -4.992188 2.3125 -4.421875 C 2.3125 -3.867188 2.332031 -3.4375 2.375 -3.125 C 2.425781 -2.820312 2.507812 -2.550781 2.625 -2.3125 C 2.757812 -1.882812 3.003906 -1.546875 3.359375 -1.296875 C 3.710938 -1.054688 4.132812 -0.9375 4.625 -0.9375 C 5.09375 -0.9375 5.484375 -1.054688 5.796875 -1.296875 C 6.109375 -1.546875 6.34375 -1.875 6.5 -2.28125 Z M 6.5 -2.28125 "/></g></g><g style="fill:#289dd2;fill-opacity:1;"><g transform="translate(247.691043, 308.013193)"><path style="stroke:none" d="M 2.15625 -10.421875 C 1.875 -10.421875 1.644531 -10.503906 1.46875 -10.671875 C 1.289062 -10.847656 1.203125 -11.070312 1.203125 -11.34375 C 1.203125 -11.601562 1.289062 -11.816406 1.46875 -11.984375 C 1.644531 -12.148438 1.875 -12.234375 2.15625 -12.234375 C 2.425781 -12.234375 2.648438 -12.148438 2.828125 -11.984375 C 3.003906 -11.816406 3.09375 -11.601562 3.09375 -11.34375 C 3.09375 -11.070312 3.003906 -10.847656 2.828125 -10.671875 C 2.648438 -10.503906 2.425781 -10.421875 2.15625 -10.421875 Z M 1.765625 0 C 1.609375 0 1.53125 -0.078125 1.53125 -0.234375 L 1.53125 -8.609375 C 1.53125 -8.765625 1.609375 -8.84375 1.765625 -8.84375 L 2.546875 -8.84375 C 2.703125 -8.84375 2.78125 -8.765625 2.78125 -8.609375 L 2.78125 -0.234375 C 2.78125 -0.078125 2.703125 0 2.546875 0 Z M 1.765625 0 "/></g></g><g style="fill:#289dd2;fill-opacity:1;"><g transform="translate(252.040011, 308.013193)"><path style="stroke:none" d="M 4.734375 0.140625 C 3.890625 0.140625 3.164062 -0.078125 2.5625 -0.515625 C 1.96875 -0.953125 1.5625 -1.539062 1.34375 -2.28125 C 1.195312 -2.800781 1.125 -3.523438 1.125 -4.453125 C 1.125 -5.296875 1.195312 -6.003906 1.34375 -6.578125 C 1.550781 -7.304688 1.957031 -7.890625 2.5625 -8.328125 C 3.164062 -8.765625 3.890625 -8.984375 4.734375 -8.984375 C 5.585938 -8.984375 6.320312 -8.765625 6.9375 -8.328125 C 7.5625 -7.898438 7.96875 -7.363281 8.15625 -6.71875 C 8.207031 -6.5625 8.242188 -6.40625 8.265625 -6.25 L 8.265625 -6.21875 C 8.265625 -6.09375 8.191406 -6.015625 8.046875 -5.984375 L 7.28125 -5.90625 L 7.234375 -5.90625 C 7.128906 -5.90625 7.054688 -5.96875 7.015625 -6.09375 C 7.015625 -6.144531 7.003906 -6.21875 6.984375 -6.3125 C 6.878906 -6.75 6.625 -7.117188 6.21875 -7.421875 C 5.8125 -7.734375 5.316406 -7.890625 4.734375 -7.890625 C 4.148438 -7.890625 3.660156 -7.734375 3.265625 -7.421875 C 2.878906 -7.117188 2.628906 -6.710938 2.515625 -6.203125 C 2.410156 -5.753906 2.359375 -5.164062 2.359375 -4.4375 C 2.359375 -3.664062 2.410156 -3.070312 2.515625 -2.65625 C 2.628906 -2.132812 2.878906 -1.71875 3.265625 -1.40625 C 3.660156 -1.09375 4.148438 -0.9375 4.734375 -0.9375 C 5.304688 -0.9375 5.796875 -1.082031 6.203125 -1.375 C 6.617188 -1.675781 6.875 -2.054688 6.96875 -2.515625 C 6.976562 -2.535156 6.984375 -2.566406 6.984375 -2.609375 L 7 -2.625 C 7.007812 -2.769531 7.097656 -2.832031 7.265625 -2.8125 L 8.015625 -2.6875 C 8.171875 -2.664062 8.242188 -2.578125 8.234375 -2.421875 L 8.15625 -2.125 C 7.976562 -1.457031 7.578125 -0.910156 6.953125 -0.484375 C 6.328125 -0.0664062 5.585938 0.140625 4.734375 0.140625 Z M 4.734375 0.140625 "/></g></g><g style="fill:#289dd2;fill-opacity:1;"><g transform="translate(261.192074, 308.013193)"><path style="stroke:none" d="M 4.453125 -8.984375 C 5.503906 -8.984375 6.316406 -8.710938 6.890625 -8.171875 C 7.460938 -7.640625 7.75 -6.929688 7.75 -6.046875 L 7.75 -0.234375 C 7.75 -0.078125 7.675781 0 7.53125 0 L 6.75 0 C 6.59375 0 6.515625 -0.078125 6.515625 -0.234375 L 6.515625 -0.859375 C 6.515625 -0.890625 6.503906 -0.910156 6.484375 -0.921875 C 6.460938 -0.929688 6.4375 -0.921875 6.40625 -0.890625 C 6.09375 -0.554688 5.703125 -0.300781 5.234375 -0.125 C 4.765625 0.0507812 4.25 0.140625 3.6875 0.140625 C 2.875 0.140625 2.1875 -0.0664062 1.625 -0.484375 C 1.070312 -0.910156 0.796875 -1.550781 0.796875 -2.40625 C 0.796875 -3.28125 1.113281 -3.96875 1.75 -4.46875 C 2.382812 -4.976562 3.269531 -5.234375 4.40625 -5.234375 L 6.421875 -5.234375 C 6.484375 -5.234375 6.515625 -5.265625 6.515625 -5.328125 L 6.515625 -5.96875 C 6.515625 -6.5625 6.347656 -7.03125 6.015625 -7.375 C 5.679688 -7.71875 5.164062 -7.890625 4.46875 -7.890625 C 3.925781 -7.890625 3.476562 -7.785156 3.125 -7.578125 C 2.78125 -7.367188 2.5625 -7.078125 2.46875 -6.703125 C 2.425781 -6.566406 2.335938 -6.507812 2.203125 -6.53125 L 1.34375 -6.640625 C 1.195312 -6.660156 1.128906 -6.722656 1.140625 -6.828125 C 1.253906 -7.472656 1.609375 -7.992188 2.203125 -8.390625 C 2.804688 -8.785156 3.554688 -8.984375 4.453125 -8.984375 Z M 3.96875 -0.921875 C 4.65625 -0.921875 5.25 -1.09375 5.75 -1.4375 C 6.257812 -1.78125 6.515625 -2.242188 6.515625 -2.828125 L 6.515625 -4.171875 C 6.515625 -4.234375 6.484375 -4.265625 6.421875 -4.265625 L 4.59375 -4.265625 C 3.820312 -4.265625 3.203125 -4.101562 2.734375 -3.78125 C 2.273438 -3.46875 2.046875 -3.035156 2.046875 -2.484375 C 2.046875 -1.972656 2.222656 -1.582031 2.578125 -1.3125 C 2.941406 -1.050781 3.40625 -0.921875 3.96875 -0.921875 Z M 3.96875 -0.921875 "/></g></g><g style="fill:#289dd2;fill-opacity:1;"><g transform="translate(270.186952, 308.013193)"><path style="stroke:none" d=""/></g></g><g style="fill:#289dd2;fill-opacity:1;"><g transform="translate(273.749937, 308.013193)"><path style="stroke:none" d="M 2.15625 -10.421875 C 1.875 -10.421875 1.644531 -10.503906 1.46875 -10.671875 C 1.289062 -10.847656 1.203125 -11.070312 1.203125 -11.34375 C 1.203125 -11.601562 1.289062 -11.816406 1.46875 -11.984375 C 1.644531 -12.148438 1.875 -12.234375 2.15625 -12.234375 C 2.425781 -12.234375 2.648438 -12.148438 2.828125 -11.984375 C 3.003906 -11.816406 3.09375 -11.601562 3.09375 -11.34375 C 3.09375 -11.070312 3.003906 -10.847656 2.828125 -10.671875 C 2.648438 -10.503906 2.425781 -10.421875 2.15625 -10.421875 Z M 1.765625 0 C 1.609375 0 1.53125 -0.078125 1.53125 -0.234375 L 1.53125 -8.609375 C 1.53125 -8.765625 1.609375 -8.84375 1.765625 -8.84375 L 2.546875 -8.84375 C 2.703125 -8.84375 2.78125 -8.765625 2.78125 -8.609375 L 2.78125 -0.234375 C 2.78125 -0.078125 2.703125 0 2.546875 0 Z M 1.765625 0 "/></g></g><g style="fill:#289dd2;fill-opacity:1;"><g transform="translate(278.098905, 308.013193)"><path style="stroke:none" d="M 5.0625 -8.96875 C 5.988281 -8.96875 6.726562 -8.691406 7.28125 -8.140625 C 7.832031 -7.585938 8.109375 -6.851562 8.109375 -5.9375 L 8.109375 -0.234375 C 8.109375 -0.078125 8.03125 0 7.875 0 L 7.09375 0 C 6.9375 0 6.859375 -0.078125 6.859375 -0.234375 L 6.859375 -5.6875 C 6.859375 -6.34375 6.664062 -6.867188 6.28125 -7.265625 C 5.90625 -7.671875 5.40625 -7.875 4.78125 -7.875 C 4.1875 -7.875 3.691406 -7.703125 3.296875 -7.359375 C 2.910156 -7.023438 2.691406 -6.585938 2.640625 -6.046875 L 2.640625 -0.234375 C 2.640625 -0.078125 2.5625 0 2.40625 0 L 1.625 0 C 1.46875 0 1.390625 -0.078125 1.390625 -0.234375 L 1.390625 -8.609375 C 1.390625 -8.765625 1.46875 -8.84375 1.625 -8.84375 L 2.40625 -8.84375 C 2.5625 -8.84375 2.640625 -8.765625 2.640625 -8.609375 L 2.640625 -7.96875 C 2.640625 -7.925781 2.648438 -7.894531 2.671875 -7.875 C 2.691406 -7.863281 2.707031 -7.875 2.71875 -7.90625 C 3.238281 -8.613281 4.019531 -8.96875 5.0625 -8.96875 Z M 5.0625 -8.96875 "/></g></g><g style="fill:#289dd2;fill-opacity:1;"><g transform="translate(287.582823, 308.013193)"><path style="stroke:none" d="M 5.359375 -8.03125 C 5.359375 -7.882812 5.285156 -7.8125 5.140625 -7.8125 L 3.234375 -7.8125 C 3.171875 -7.8125 3.140625 -7.78125 3.140625 -7.71875 L 3.140625 -2.625 C 3.140625 -2.0625 3.265625 -1.664062 3.515625 -1.4375 C 3.765625 -1.207031 4.160156 -1.09375 4.703125 -1.09375 L 5.078125 -1.09375 C 5.234375 -1.09375 5.3125 -1.019531 5.3125 -0.875 L 5.3125 -0.265625 C 5.3125 -0.109375 5.234375 -0.0234375 5.078125 -0.015625 L 4.484375 -0.015625 C 3.648438 -0.015625 3.015625 -0.171875 2.578125 -0.484375 C 2.148438 -0.796875 1.9375 -1.378906 1.9375 -2.234375 L 1.9375 -7.71875 C 1.9375 -7.78125 1.910156 -7.8125 1.859375 -7.8125 L 0.859375 -7.8125 C 0.703125 -7.8125 0.625 -7.882812 0.625 -8.03125 L 0.625 -8.609375 C 0.625 -8.765625 0.703125 -8.84375 0.859375 -8.84375 L 1.859375 -8.84375 C 1.910156 -8.84375 1.9375 -8.867188 1.9375 -8.921875 L 1.9375 -10.890625 C 1.9375 -11.035156 2.015625 -11.109375 2.171875 -11.109375 L 2.921875 -11.109375 C 3.066406 -11.109375 3.140625 -11.035156 3.140625 -10.890625 L 3.140625 -8.921875 C 3.140625 -8.867188 3.171875 -8.84375 3.234375 -8.84375 L 5.140625 -8.84375 C 5.285156 -8.84375 5.359375 -8.765625 5.359375 -8.609375 Z M 5.359375 -8.03125 "/></g></g><g style="fill:#289dd2;fill-opacity:1;"><g transform="translate(294.010226, 308.013193)"><path style="stroke:none" d="M 4.84375 -0.921875 C 5.363281 -0.929688 5.8125 -1.050781 6.1875 -1.28125 C 6.570312 -1.507812 6.867188 -1.828125 7.078125 -2.234375 C 7.097656 -2.296875 7.132812 -2.335938 7.1875 -2.359375 C 7.25 -2.378906 7.3125 -2.375 7.375 -2.34375 L 7.875 -2.0625 C 8.019531 -1.976562 8.054688 -1.878906 7.984375 -1.765625 C 7.703125 -1.179688 7.28125 -0.71875 6.71875 -0.375 C 6.164062 -0.03125 5.503906 0.140625 4.734375 0.140625 C 3.921875 0.140625 3.234375 -0.0507812 2.671875 -0.4375 C 2.109375 -0.820312 1.707031 -1.359375 1.46875 -2.046875 C 1.25 -2.628906 1.140625 -3.429688 1.140625 -4.453125 C 1.140625 -4.953125 1.144531 -5.347656 1.15625 -5.640625 C 1.175781 -5.941406 1.222656 -6.222656 1.296875 -6.484375 C 1.492188 -7.234375 1.890625 -7.835938 2.484375 -8.296875 C 3.085938 -8.753906 3.816406 -8.984375 4.671875 -8.984375 C 5.679688 -8.984375 6.472656 -8.71875 7.046875 -8.1875 C 7.617188 -7.664062 7.988281 -6.925781 8.15625 -5.96875 C 8.226562 -5.601562 8.265625 -5.023438 8.265625 -4.234375 C 8.265625 -4.078125 8.1875 -4 8.03125 -4 L 2.453125 -4 C 2.390625 -4 2.359375 -3.96875 2.359375 -3.90625 C 2.359375 -3.332031 2.394531 -2.910156 2.46875 -2.640625 C 2.59375 -2.117188 2.859375 -1.703125 3.265625 -1.390625 C 3.679688 -1.078125 4.207031 -0.921875 4.84375 -0.921875 Z M 4.671875 -7.890625 C 4.085938 -7.890625 3.609375 -7.738281 3.234375 -7.4375 C 2.859375 -7.144531 2.613281 -6.75 2.5 -6.25 C 2.425781 -6.019531 2.378906 -5.625 2.359375 -5.0625 C 2.359375 -5.007812 2.390625 -4.984375 2.453125 -4.984375 L 6.9375 -4.984375 C 6.988281 -4.984375 7.015625 -5.007812 7.015625 -5.0625 C 6.992188 -5.570312 6.960938 -5.945312 6.921875 -6.1875 C 6.785156 -6.707031 6.523438 -7.117188 6.140625 -7.421875 C 5.753906 -7.734375 5.265625 -7.890625 4.671875 -7.890625 Z M 4.671875 -7.890625 "/></g></g><g style="fill:#289dd2;fill-opacity:1;"><g transform="translate(303.406809, 308.013193)"><path style="stroke:none" d="M 6.84375 -8.609375 C 6.84375 -8.765625 6.921875 -8.84375 7.078125 -8.84375 L 7.859375 -8.84375 C 8.015625 -8.84375 8.09375 -8.765625 8.09375 -8.609375 L 8.09375 -0.296875 C 8.09375 1.003906 7.710938 1.957031 6.953125 2.5625 C 6.191406 3.164062 5.160156 3.46875 3.859375 3.46875 C 3.617188 3.46875 3.429688 3.460938 3.296875 3.453125 C 3.148438 3.441406 3.078125 3.363281 3.078125 3.21875 L 3.109375 2.515625 C 3.109375 2.347656 3.1875 2.28125 3.34375 2.3125 C 4.570312 2.363281 5.460938 2.179688 6.015625 1.765625 C 6.566406 1.347656 6.84375 0.648438 6.84375 -0.328125 L 6.84375 -0.9375 C 6.84375 -0.976562 6.832031 -1.003906 6.8125 -1.015625 C 6.789062 -1.023438 6.769531 -1.015625 6.75 -0.984375 C 6.207031 -0.296875 5.445312 0.046875 4.46875 0.046875 C 3.71875 0.046875 3.046875 -0.15625 2.453125 -0.5625 C 1.867188 -0.96875 1.476562 -1.539062 1.28125 -2.28125 C 1.132812 -2.757812 1.0625 -3.472656 1.0625 -4.421875 C 1.0625 -4.929688 1.078125 -5.359375 1.109375 -5.703125 C 1.140625 -6.054688 1.203125 -6.375 1.296875 -6.65625 C 1.503906 -7.351562 1.878906 -7.914062 2.421875 -8.34375 C 2.972656 -8.769531 3.632812 -8.984375 4.40625 -8.984375 C 5.414062 -8.984375 6.195312 -8.648438 6.75 -7.984375 C 6.769531 -7.953125 6.789062 -7.941406 6.8125 -7.953125 C 6.832031 -7.960938 6.84375 -7.984375 6.84375 -8.015625 Z M 6.765625 -2.671875 C 6.796875 -2.847656 6.816406 -3.0625 6.828125 -3.3125 C 6.835938 -3.570312 6.84375 -3.945312 6.84375 -4.4375 C 6.84375 -5.03125 6.835938 -5.425781 6.828125 -5.625 C 6.816406 -5.832031 6.789062 -6.023438 6.75 -6.203125 C 6.65625 -6.691406 6.421875 -7.09375 6.046875 -7.40625 C 5.679688 -7.726562 5.222656 -7.890625 4.671875 -7.890625 C 4.117188 -7.890625 3.648438 -7.734375 3.265625 -7.421875 C 2.890625 -7.109375 2.628906 -6.703125 2.484375 -6.203125 C 2.367188 -5.828125 2.3125 -5.242188 2.3125 -4.453125 C 2.3125 -3.597656 2.367188 -3.007812 2.484375 -2.6875 C 2.597656 -2.195312 2.847656 -1.789062 3.234375 -1.46875 C 3.628906 -1.15625 4.109375 -1 4.671875 -1 C 5.234375 -1 5.695312 -1.15625 6.0625 -1.46875 C 6.4375 -1.78125 6.671875 -2.179688 6.765625 -2.671875 Z M 6.765625 -2.671875 "/></g></g><g style="fill:#289dd2;fill-opacity:1;"><g transform="translate(312.820876, 308.013193)"><path style="stroke:none" d="M 4.96875 -8.921875 C 5.34375 -8.921875 5.660156 -8.851562 5.921875 -8.71875 C 6.035156 -8.664062 6.078125 -8.570312 6.046875 -8.4375 L 5.875 -7.671875 C 5.832031 -7.523438 5.738281 -7.476562 5.59375 -7.53125 C 5.375 -7.601562 5.085938 -7.628906 4.734375 -7.609375 C 4.128906 -7.585938 3.628906 -7.363281 3.234375 -6.9375 C 2.835938 -6.519531 2.640625 -5.984375 2.640625 -5.328125 L 2.640625 -0.234375 C 2.640625 -0.078125 2.5625 0 2.40625 0 L 1.625 0 C 1.46875 0 1.390625 -0.078125 1.390625 -0.234375 L 1.390625 -8.609375 C 1.390625 -8.765625 1.46875 -8.84375 1.625 -8.84375 L 2.40625 -8.84375 C 2.5625 -8.84375 2.640625 -8.765625 2.640625 -8.609375 L 2.640625 -7.640625 C 2.640625 -7.585938 2.644531 -7.554688 2.65625 -7.546875 C 2.675781 -7.546875 2.695312 -7.5625 2.71875 -7.59375 C 2.96875 -8.019531 3.28125 -8.347656 3.65625 -8.578125 C 4.039062 -8.804688 4.476562 -8.921875 4.96875 -8.921875 Z M 4.96875 -8.921875 "/></g></g><g style="fill:#289dd2;fill-opacity:1;"><g transform="translate(319.248278, 308.013193)"><path style="stroke:none" d="M 4.453125 -8.984375 C 5.503906 -8.984375 6.316406 -8.710938 6.890625 -8.171875 C 7.460938 -7.640625 7.75 -6.929688 7.75 -6.046875 L 7.75 -0.234375 C 7.75 -0.078125 7.675781 0 7.53125 0 L 6.75 0 C 6.59375 0 6.515625 -0.078125 6.515625 -0.234375 L 6.515625 -0.859375 C 6.515625 -0.890625 6.503906 -0.910156 6.484375 -0.921875 C 6.460938 -0.929688 6.4375 -0.921875 6.40625 -0.890625 C 6.09375 -0.554688 5.703125 -0.300781 5.234375 -0.125 C 4.765625 0.0507812 4.25 0.140625 3.6875 0.140625 C 2.875 0.140625 2.1875 -0.0664062 1.625 -0.484375 C 1.070312 -0.910156 0.796875 -1.550781 0.796875 -2.40625 C 0.796875 -3.28125 1.113281 -3.96875 1.75 -4.46875 C 2.382812 -4.976562 3.269531 -5.234375 4.40625 -5.234375 L 6.421875 -5.234375 C 6.484375 -5.234375 6.515625 -5.265625 6.515625 -5.328125 L 6.515625 -5.96875 C 6.515625 -6.5625 6.347656 -7.03125 6.015625 -7.375 C 5.679688 -7.71875 5.164062 -7.890625 4.46875 -7.890625 C 3.925781 -7.890625 3.476562 -7.785156 3.125 -7.578125 C 2.78125 -7.367188 2.5625 -7.078125 2.46875 -6.703125 C 2.425781 -6.566406 2.335938 -6.507812 2.203125 -6.53125 L 1.34375 -6.640625 C 1.195312 -6.660156 1.128906 -6.722656 1.140625 -6.828125 C 1.253906 -7.472656 1.609375 -7.992188 2.203125 -8.390625 C 2.804688 -8.785156 3.554688 -8.984375 4.453125 -8.984375 Z M 3.96875 -0.921875 C 4.65625 -0.921875 5.25 -1.09375 5.75 -1.4375 C 6.257812 -1.78125 6.515625 -2.242188 6.515625 -2.828125 L 6.515625 -4.171875 C 6.515625 -4.234375 6.484375 -4.265625 6.421875 -4.265625 L 4.59375 -4.265625 C 3.820312 -4.265625 3.203125 -4.101562 2.734375 -3.78125 C 2.273438 -3.46875 2.046875 -3.035156 2.046875 -2.484375 C 2.046875 -1.972656 2.222656 -1.582031 2.578125 -1.3125 C 2.941406 -1.050781 3.40625 -0.921875 3.96875 -0.921875 Z M 3.96875 -0.921875 "/></g></g><g style="fill:#289dd2;fill-opacity:1;"><g transform="translate(328.243129, 308.013193)"><path style="stroke:none" d="M 1.625 0 C 1.46875 0 1.390625 -0.078125 1.390625 -0.234375 L 1.390625 -12 C 1.390625 -12.15625 1.46875 -12.234375 1.625 -12.234375 L 2.40625 -12.234375 C 2.5625 -12.234375 2.640625 -12.15625 2.640625 -12 L 2.640625 -0.234375 C 2.640625 -0.078125 2.5625 0 2.40625 0 Z M 1.625 0 "/></g></g></g></svg>